<?xml version="1.0" encoding="UTF-8" standalone="no" ?>
<!DOCTYPE svg PUBLIC "-//W3C//DTD SVG 1.1//EN" "http://www.w3.org/Graphics/SVG/1.1/DTD/svg11.dtd">
<svg xmlns="http://www.w3.org/2000/svg" xmlns:xlink="http://www.w3.org/1999/xlink" version="1.1" width="445" height="445" viewBox="0 0 445 445" xml:space="preserve">
<desc>Created with Fabric.js 1.7.22</desc>
<defs>
</defs>
<g id="icon" style="stroke: none; stroke-width: 1; stroke-dasharray: none; stroke-linecap: butt; stroke-linejoin: miter; stroke-miterlimit: 10; fill: none; fill-rule: nonzero; opacity: 1;" transform="translate(-2.4722222222222285 -2.4722222222222285) scale(4.94 4.94)" >
	<path d="M 86.885 40.204 c -0.922 0 -1.745 0.62 -2.312 1.602 c -0.545 0.944 -1.505 1.573 -2.595 1.573 h -8.026 c -0.171 -3.103 -0.834 -6.073 -1.906 -8.841 l 2.525 -1.046 c 0.426 -0.176 0.903 -0.086 1.268 0.195 c 0.38 0.292 0.802 0.401 1.162 0.252 c 0.672 -0.278 0.869 -1.343 0.441 -2.378 s -1.321 -1.648 -1.993 -1.37 c -0.36 0.149 -0.581 0.525 -0.644 1 c -0.06 0.457 -0.333 0.858 -0.759 1.035 l -2.525 1.046 c -1.236 -2.792 -2.897 -5.352 -4.905 -7.597 l 5.676 -5.677 c 0.771 -0.771 1.894 -1.005 2.948 -0.723 c 1.095 0.294 2.116 0.15 2.768 -0.502 c 1.216 -1.216 0.684 -3.721 -1.189 -5.594 c -1.873 -1.873 -4.377 -2.405 -5.594 -1.189 c -0.652 0.652 -0.795 1.672 -0.502 2.768 c 0.282 1.053 0.048 2.177 -0.723 2.948 l -5.676 5.676 c -2.245 -2.008 -4.806 -3.669 -7.597 -4.905 l 1.046 -2.525 c 0.176 -0.426 0.578 -0.699 1.035 -0.759 c 0.475 -0.063 0.851 -0.284 1 -0.644 c 0.278 -0.672 -0.335 -1.564 -1.37 -1.993 c -1.035 -0.429 -2.099 -0.231 -2.378 0.441 c -0.149 0.36 -0.04 0.782 0.252 1.163 c 0.281 0.366 0.371 0.843 0.195 1.268 l -1.046 2.525 c -2.768 -1.071 -5.738 -1.735 -8.841 -1.906 V 8.022 c 0 -1.09 0.629 -2.05 1.573 -2.595 c 0.982 -0.567 1.602 -1.39 1.602 -2.312 C 49.796 1.394 47.649 0 45 0 s -4.796 1.394 -4.796 3.115 c 0 0.922 0.62 1.745 1.602 2.312 c 0.944 0.545 1.573 1.505 1.573 2.595 v 8.026 c -3.103 0.171 -6.073 0.834 -8.841 1.906 l -1.046 -2.525 c -0.176 -0.426 -0.086 -0.903 0.195 -1.268 c 0.292 -0.38 0.401 -0.802 0.252 -1.163 c -0.278 -0.672 -1.343 -0.869 -2.378 -0.441 c -1.035 0.429 -1.648 1.321 -1.37 1.993 c 0.149 0.36 0.525 0.581 1 0.644 c 0.457 0.06 0.858 0.333 1.035 0.759 l 1.046 2.525 c -2.792 1.236 -5.352 2.897 -7.597 4.905 l -5.676 -5.676 c -0.771 -0.771 -1.005 -1.894 -0.723 -2.948 c 0.294 -1.095 0.15 -2.116 -0.502 -2.768 c -1.216 -1.216 -3.721 -0.684 -5.594 1.189 c -1.873 1.873 -2.405 4.377 -1.189 5.594 c 0.652 0.652 1.672 0.795 2.768 0.502 c 1.053 -0.282 2.177 -0.048 2.948 0.723 l 5.677 5.677 c -2.009 2.245 -3.669 4.806 -4.905 7.597 l -2.525 -1.046 c -0.426 -0.176 -0.699 -0.577 -0.759 -1.035 c -0.063 -0.475 -0.284 -0.851 -0.644 -1 c -0.672 -0.278 -1.564 0.335 -1.993 1.37 s -0.231 2.099 0.441 2.378 c 0.36 0.149 0.782 0.04 1.162 -0.252 c 0.366 -0.281 0.843 -0.371 1.268 -0.195 l 2.525 1.046 c -1.071 2.768 -1.735 5.738 -1.906 8.841 H 8.022 c -1.09 0 -2.05 -0.629 -2.595 -1.573 c -0.567 -0.982 -1.39 -1.602 -2.312 -1.602 C 1.394 40.204 0 42.351 0 45 c 0 2.649 1.394 4.796 3.115 4.796 c 0.922 0 1.745 -0.62 2.312 -1.602 c 0.545 -0.944 1.505 -1.573 2.595 -1.573 h 8.026 c 0.171 3.103 0.834 6.073 1.906 8.841 l -2.525 1.046 c -0.426 0.176 -0.903 0.086 -1.268 -0.195 c -0.38 -0.292 -0.802 -0.401 -1.162 -0.252 c -0.672 0.278 -0.869 1.343 -0.441 2.378 s 1.321 1.648 1.993 1.37 c 0.36 -0.149 0.581 -0.525 0.644 -1 c 0.06 -0.457 0.333 -0.858 0.759 -1.035 l 2.525 -1.046 c 1.236 2.792 2.897 5.352 4.905 7.597 l -5.676 5.676 c -0.771 0.771 -1.894 1.005 -2.948 0.723 c -1.095 -0.293 -2.116 -0.15 -2.768 0.502 c -1.216 1.216 -0.684 3.721 1.189 5.594 c 1.873 1.873 4.377 2.405 5.594 1.189 c 0.652 -0.652 0.795 -1.672 0.502 -2.768 c -0.282 -1.053 -0.048 -2.177 0.723 -2.948 l 5.676 -5.676 c 2.245 2.009 4.806 3.669 7.597 4.905 l -1.046 2.525 c -0.176 0.426 -0.578 0.699 -1.035 0.759 c -0.475 0.063 -0.851 0.284 -1 0.644 c -0.278 0.672 0.335 1.564 1.37 1.993 s 2.099 0.231 2.378 -0.441 c 0.149 -0.36 0.04 -0.782 -0.252 -1.162 c -0.281 -0.366 -0.371 -0.843 -0.195 -1.268 l 1.046 -2.525 c 2.768 1.071 5.738 1.735 8.841 1.906 v 8.026 c 0 1.09 -0.629 2.05 -1.573 2.595 c -0.982 0.567 -1.602 1.39 -1.602 2.312 C 40.204 88.606 42.351 90 45 90 s 4.796 -1.394 4.796 -3.115 c 0 -0.922 -0.62 -1.745 -1.602 -2.312 c -0.944 -0.545 -1.573 -1.505 -1.573 -2.595 v -8.026 c 3.103 -0.171 6.073 -0.834 8.841 -1.906 l 1.046 2.525 c 0.176 0.426 0.086 0.903 -0.195 1.268 c -0.292 0.38 -0.401 0.802 -0.252 1.162 c 0.278 0.672 1.343 0.869 2.378 0.441 s 1.648 -1.321 1.37 -1.993 c -0.149 -0.36 -0.525 -0.581 -1 -0.644 c -0.457 -0.06 -0.858 -0.333 -1.035 -0.759 l -1.046 -2.525 c 2.792 -1.236 5.352 -2.897 7.597 -4.905 l 5.676 5.676 c 0.771 0.771 1.005 1.894 0.723 2.948 c -0.294 1.095 -0.15 2.116 0.502 2.768 c 1.216 1.216 3.721 0.684 5.594 -1.189 c 1.873 -1.873 2.405 -4.377 1.189 -5.594 c -0.652 -0.652 -1.672 -0.795 -2.768 -0.502 c -1.053 0.282 -2.177 0.048 -2.948 -0.723 l -5.676 -5.676 c 2.008 -2.245 3.669 -4.806 4.905 -7.597 l 2.525 1.046 c 0.426 0.176 0.699 0.578 0.759 1.035 c 0.063 0.475 0.284 0.851 0.644 1 c 0.672 0.278 1.564 -0.335 1.993 -1.37 s 0.231 -2.099 -0.441 -2.378 c -0.36 -0.149 -0.782 -0.04 -1.162 0.252 c -0.366 0.281 -0.843 0.371 -1.268 0.195 l -2.525 -1.046 c 1.071 -2.768 1.735 -5.738 1.906 -8.841 h 8.026 c 1.09 0 2.05 0.629 2.595 1.573 c 0.567 0.982 1.39 1.602 2.312 1.602 C 88.606 49.796 90 47.649 90 45 C 90 42.351 88.606 40.204 86.885 40.204 z" style="stroke: none; stroke-width: 1; stroke-dasharray: none; stroke-linecap: butt; stroke-linejoin: miter; stroke-miterlimit: 10; fill: rgb(255,39,39); fill-rule: nonzero; opacity: 1;" transform=" matrix(1 0 0 1 0 0) " stroke-linecap="round" />
	<circle cx="49.182" cy="37.322" r="3.792" style="stroke: none; stroke-width: 1; stroke-dasharray: none; stroke-linecap: butt; stroke-linejoin: miter; stroke-miterlimit: 10; fill: rgb(155,25,25); fill-rule: nonzero; opacity: 1;" transform="  matrix(1 0 0 1 0 0) "/>
	<circle cx="36.752" cy="46.602000000000004" r="3.792" style="stroke: none; stroke-width: 1; stroke-dasharray: none; stroke-linecap: butt; stroke-linejoin: miter; stroke-miterlimit: 10; fill: rgb(155,25,25); fill-rule: nonzero; opacity: 1;" transform="  matrix(1 0 0 1 0 0) "/>
	<ellipse cx="44.712" cy="24.092000000000002" rx="3.792" ry="2.172" style="stroke: none; stroke-width: 1; stroke-dasharray: none; stroke-linecap: butt; stroke-linejoin: miter; stroke-miterlimit: 10; fill: rgb(155,25,25); fill-rule: nonzero; opacity: 1;" transform=" matrix(1 0 0 1 0 0) "/>
	<ellipse cx="43.924" cy="65.61" rx="3.004" ry="1.72" style="stroke: none; stroke-width: 1; stroke-dasharray: none; stroke-linecap: butt; stroke-linejoin: miter; stroke-miterlimit: 10; fill: rgb(155,25,25); fill-rule: nonzero; opacity: 1;" transform=" matrix(1 0 0 1 0 0) "/>
	<ellipse cx="29.933" cy="58.642" rx="1.983" ry="3.462" style="stroke: none; stroke-width: 1; stroke-dasharray: none; stroke-linecap: butt; stroke-linejoin: miter; stroke-miterlimit: 10; fill: rgb(155,25,25); fill-rule: nonzero; opacity: 1;" transform=" matrix(0.7071 -0.7071 0.7071 0.7071 -32.7027 38.3412) "/>
	<ellipse cx="24.134" cy="42.18" rx="3.004" ry="1.72" style="stroke: none; stroke-width: 1; stroke-dasharray: none; stroke-linecap: butt; stroke-linejoin: miter; stroke-miterlimit: 10; fill: rgb(155,25,25); fill-rule: nonzero; opacity: 1;" transform=" matrix(0.2924 -0.9563 0.9563 0.2924 -23.2585 52.9198) "/>
	<ellipse cx="61.22" cy="46.794" rx="1.72" ry="3.004" style="stroke: none; stroke-width: 1; stroke-dasharray: none; stroke-linecap: butt; stroke-linejoin: miter; stroke-miterlimit: 10; fill: rgb(155,25,25); fill-rule: nonzero; opacity: 1;" transform=" matrix(1 0 0 1 0 0) "/>
	<ellipse cx="58.33" cy="30.144000000000002" rx="1.72" ry="3.004" style="stroke: none; stroke-width: 1; stroke-dasharray: none; stroke-linecap: butt; stroke-linejoin: miter; stroke-miterlimit: 10; fill: rgb(155,25,25); fill-rule: nonzero; opacity: 1;" transform=" matrix(0.8268 -0.5625 0.5625 0.8268 -6.8511 38.0345) "/>
	<ellipse cx="67.762" cy="53.975" rx="1.912" ry="0.935" style="stroke: none; stroke-width: 1; stroke-dasharray: none; stroke-linecap: butt; stroke-linejoin: miter; stroke-miterlimit: 10; fill: rgb(155,25,25); fill-rule: nonzero; opacity: 1;" transform=" matrix(0.3863 -0.9224 0.9224 0.3863 -8.2041 95.6267) "/>
	<ellipse cx="67.275" cy="37.002" rx="0.935" ry="1.912" style="stroke: none; stroke-width: 1; stroke-dasharray: none; stroke-linecap: butt; stroke-linejoin: miter; stroke-miterlimit: 10; fill: rgb(155,25,25); fill-rule: nonzero; opacity: 1;" transform=" matrix(0.8849 -0.4658 0.4658 0.8849 -9.4907 35.5917) "/>
	<ellipse cx="31.134" cy="29.18" rx="3.004" ry="1.72" style="stroke: none; stroke-width: 1; stroke-dasharray: none; stroke-linecap: butt; stroke-linejoin: miter; stroke-miterlimit: 10; fill: rgb(155,25,25); fill-rule: nonzero; opacity: 1;" transform=" matrix(0.5943 -0.8043 0.8043 0.5943 -10.8352 36.8743) "/>
	<circle cx="49.752" cy="53.602000000000004" r="3.792" style="stroke: none; stroke-width: 1; stroke-dasharray: none; stroke-linecap: butt; stroke-linejoin: miter; stroke-miterlimit: 10; fill: rgb(155,25,25); fill-rule: nonzero; opacity: 1;" transform="  matrix(1 0 0 1 0 0) "/>
	<ellipse cx="58.048" cy="62.888" rx="2.668" ry="1.528" style="stroke: none; stroke-width: 1; stroke-dasharray: none; stroke-linecap: butt; stroke-linejoin: miter; stroke-miterlimit: 10; fill: rgb(155,25,25); fill-rule: nonzero; opacity: 1;" transform=" matrix(0.7071 -0.7071 0.7071 0.7071 -27.4655 59.4647) "/>
</g>
</svg>