<?xml version="1.0" encoding="UTF-8" standalone="no" ?>
<!DOCTYPE svg PUBLIC "-//W3C//DTD SVG 1.1//EN" "http://www.w3.org/Graphics/SVG/1.1/DTD/svg11.dtd">
<svg xmlns="http://www.w3.org/2000/svg" xmlns:xlink="http://www.w3.org/1999/xlink" version="1.1" width="445" height="445" viewBox="0 0 445 445" xml:space="preserve">
<desc>Created with Fabric.js 1.7.22</desc>
<defs>
</defs>
<g id="icon" style="stroke: none; stroke-width: 1; stroke-dasharray: none; stroke-linecap: butt; stroke-linejoin: miter; stroke-miterlimit: 10; fill: none; fill-rule: nonzero; opacity: 1;" transform="translate(-2.4722222222222285 -2.4722222222222285) scale(4.94 4.94)" >
	<path d="M 83.124 31.228 c -2.547 0 -4.619 -2.072 -4.619 -4.62 s 2.072 -4.62 4.619 -4.62 c 2.548 0 4.62 2.073 4.62 4.62 S 85.672 31.228 83.124 31.228 z M 83.124 23.988 c -1.444 0 -2.619 1.175 -2.619 2.62 c 0 1.444 1.175 2.62 2.619 2.62 s 2.62 -1.175 2.62 -2.62 C 85.744 25.163 84.568 23.988 83.124 23.988 z" style="stroke: none; stroke-width: 1; stroke-dasharray: none; stroke-linecap: butt; stroke-linejoin: miter; stroke-miterlimit: 10; fill: rgb(255,255,255); fill-rule: nonzero; opacity: 1;" transform=" matrix(1 0 0 1 0 0) " stroke-linecap="round" />
	<path d="M 27.002 89.087 c -3.721 0 -6.749 -3.027 -6.749 -6.749 s 3.028 -6.749 6.749 -6.749 s 6.749 3.027 6.749 6.749 S 30.724 89.087 27.002 89.087 z M 27.002 77.589 c -2.619 0 -4.749 2.131 -4.749 4.749 c 0 2.618 2.13 4.749 4.749 4.749 s 4.749 -2.131 4.749 -4.749 C 31.751 79.72 29.621 77.589 27.002 77.589 z" style="stroke: none; stroke-width: 1; stroke-dasharray: none; stroke-linecap: butt; stroke-linejoin: miter; stroke-miterlimit: 10; fill: rgb(255,255,255); fill-rule: nonzero; opacity: 1;" transform=" matrix(1 0 0 1 0 0) " stroke-linecap="round" />
	<path d="M 76.192 83.336 c -0.188 0 -0.375 -0.054 -0.537 -0.156 l -13.506 -8.606 c -8.187 2.117 -18.706 -0.211 -33.03 -7.306 l -11.252 2.373 c -0.954 0.361 -1.889 0.279 -2.713 -0.238 c -1.331 -0.838 -2.015 -2.646 -2.102 -4.067 c -0.158 -2.573 1.273 -3.71 3.797 -4.804 l 10.513 -4.278 l -13.51 -2.711 c -0.042 -0.009 -0.084 -0.02 -0.125 -0.033 c -2.505 -0.852 -3.842 -3.233 -3.18 -5.661 l 0.209 -0.765 c 0.014 -0.051 0.032 -0.102 0.055 -0.15 c 1.099 -2.418 3.081 -3.602 5.292 -3.175 l 13.102 1.294 l -11.657 -7.181 c -1.051 -0.636 -1.796 -1.65 -2.091 -2.85 c -0.295 -1.201 -0.105 -2.444 0.535 -3.502 l 0.96 -1.585 c 1.294 -2.136 4.02 -2.861 6.204 -1.649 L 35.1 34.731 l -8.194 -11.291 c -0.753 -1.013 -1.06 -2.318 -0.835 -3.573 c 0.226 -1.254 0.968 -2.371 2.038 -3.064 l 1.121 -0.727 c 1.819 -1.239 3.651 -1.148 5.425 0.283 c 0.034 0.027 0.065 0.056 0.095 0.088 c 2.662 2.792 4.715 5.129 6.365 7.008 c 5.308 6.045 6.832 7.78 13.641 8.289 c -0.471 -1.208 -0.936 -2.129 -1.389 -3.028 c -1.199 -2.38 -2.235 -4.437 -2.435 -10.267 c -0.041 -1.206 0.448 -2.345 1.377 -3.208 c 1.055 -0.978 2.547 -1.466 3.979 -1.314 c 2.633 0.285 3.677 2.794 4.237 4.142 c 1.678 4.029 3.155 5.775 4.865 7.795 c 1.103 1.303 2.353 2.78 3.761 5.017 c 4.539 7.399 5.704 13.259 6.157 21.322 l 14.187 8.108 c 0.234 0.134 0.404 0.356 0.472 0.617 c 0.068 0.261 0.027 0.538 -0.112 0.769 L 77.047 82.854 c -0.14 0.23 -0.366 0.395 -0.628 0.456 C 76.344 83.327 76.268 83.336 76.192 83.336 z M 62.313 72.494 c 0.188 0 0.375 0.054 0.537 0.156 l 13.016 8.292 l 11.747 -19.404 l -13.769 -7.869 c -0.296 -0.169 -0.485 -0.477 -0.503 -0.816 c -0.415 -8.017 -1.477 -13.725 -5.889 -20.916 c -1.327 -2.108 -2.477 -3.467 -3.589 -4.781 c -1.741 -2.059 -3.387 -4.003 -5.184 -8.319 c -0.711 -1.707 -1.395 -2.791 -2.607 -2.922 c -0.857 -0.092 -1.777 0.21 -2.402 0.791 c -0.353 0.327 -0.767 0.883 -0.74 1.674 c 0.185 5.391 1.084 7.176 2.223 9.435 c 0.616 1.223 1.315 2.608 2.004 4.704 c 0.103 0.313 0.045 0.656 -0.154 0.918 c -0.199 0.262 -0.515 0.401 -0.843 0.394 c -8.961 -0.418 -10.873 -2.595 -16.548 -9.057 c -1.628 -1.854 -3.651 -4.158 -6.262 -6.899 c -1.068 -0.843 -1.917 -0.879 -3.012 -0.134 l -1.14 0.739 c -0.616 0.399 -1.027 1.017 -1.157 1.739 c -0.13 0.723 0.04 1.445 0.478 2.034 L 38.56 36.096 c 0.359 0.438 0.355 1.109 -0.044 1.587 c -0.4 0.478 -1.061 0.601 -1.605 0.297 l -14.716 -7.94 c -1.252 -0.694 -2.798 -0.283 -3.533 0.931 l -0.96 1.585 c -0.751 1.239 -0.353 2.858 0.887 3.609 l 14.316 8.819 c 0.531 0.315 0.756 0.978 0.522 1.565 c -0.224 0.563 -0.796 0.888 -1.389 0.793 l -16.226 -1.607 c -1.697 -0.324 -2.639 0.867 -3.15 1.956 l -0.187 0.684 c -0.383 1.403 0.354 2.691 1.836 3.221 l 15.827 3.179 c 0.67 0.184 1.062 0.754 1.003 1.373 c -0.052 0.548 -0.446 0.992 -0.966 1.121 l -12.553 5.107 c -2.27 0.984 -2.651 1.601 -2.575 2.837 c 0.064 1.044 0.567 2.116 1.17 2.496 c 0.297 0.187 0.6 0.2 0.984 0.045 c 0.055 -0.022 0.112 -0.04 0.17 -0.053 l 11.674 -2.462 c 0.222 -0.046 0.451 -0.017 0.652 0.083 c 14.271 7.11 24.545 9.402 32.345 7.208 C 62.132 72.507 62.222 72.494 62.313 72.494 z M 31.851 46.683 c 0.006 0.004 0.013 0.008 0.019 0.012 L 31.851 46.683 z M 36.929 37.252 c 0.014 0.022 0.03 0.043 0.046 0.063 L 36.929 37.252 z M 37.857 36.219 l 0.014 0.008 C 37.867 36.224 37.862 36.221 37.857 36.219 z" style="stroke: none; stroke-width: 1; stroke-dasharray: none; stroke-linecap: butt; stroke-linejoin: miter; stroke-miterlimit: 10; fill: rgb(255,255,255); fill-rule: nonzero; opacity: 1;" transform=" matrix(1 0 0 1 0 0) " stroke-linecap="round" />
	<path d="M 69.418 87.439 c -0.263 0 -0.515 -0.104 -0.702 -0.287 L 57.401 76.008 c -3.392 0.15 -7.108 -0.538 -11.044 -2.025 c -0.517 -0.195 -0.777 -0.772 -0.582 -1.289 c 0.195 -0.517 0.771 -0.777 1.289 -0.582 c 3.843 1.451 7.423 2.084 10.662 1.877 c 0.282 -0.016 0.562 0.085 0.766 0.285 l 10.9 10.735 l 4.25 -4.519 c 0.381 -0.402 1.012 -0.42 1.414 -0.043 c 0.402 0.379 0.421 1.012 0.043 1.414 l -4.951 5.264 c -0.185 0.195 -0.44 0.31 -0.709 0.314 C 69.431 87.439 69.425 87.439 69.418 87.439 z" style="stroke: none; stroke-width: 1; stroke-dasharray: none; stroke-linecap: butt; stroke-linejoin: miter; stroke-miterlimit: 10; fill: rgb(255,255,255); fill-rule: nonzero; opacity: 1;" transform=" matrix(1 0 0 1 0 0) " stroke-linecap="round" />
	<path d="M 74.365 53.803 c -0.034 0 -0.068 -0.002 -0.104 -0.005 c -0.55 -0.057 -0.949 -0.548 -0.893 -1.098 c 0.642 -6.223 0.064 -11.135 -1.994 -16.954 c -2.113 -5.763 -2.617 -12.728 -1.537 -21.281 c 0.17 -1.352 -0.633 -2.639 -1.908 -3.06 c -0.721 -0.238 -1.486 -0.176 -2.162 0.17 c -0.683 0.352 -1.186 0.95 -1.416 1.687 c -0.959 3.067 -1.713 5.957 -2.239 8.591 c -0.108 0.542 -0.636 0.892 -1.177 0.784 c -0.541 -0.108 -0.893 -0.635 -0.784 -1.177 c 0.54 -2.702 1.312 -5.662 2.292 -8.795 c 0.391 -1.252 1.246 -2.27 2.41 -2.868 c 1.154 -0.594 2.471 -0.697 3.701 -0.292 c 2.183 0.719 3.557 2.91 3.268 5.21 c -1.039 8.229 -0.57 14.886 1.434 20.353 c 2.17 6.132 2.777 11.297 2.104 17.837 C 75.306 53.42 74.872 53.803 74.365 53.803 z" style="stroke: none; stroke-width: 1; stroke-dasharray: none; stroke-linecap: butt; stroke-linejoin: miter; stroke-miterlimit: 10; fill: rgb(255,255,255); fill-rule: nonzero; opacity: 1;" transform=" matrix(1 0 0 1 0 0) " stroke-linecap="round" />
	<path d="M 56.025 33.308 c -0.197 0 -0.397 -0.059 -0.571 -0.18 c -4.721 -3.297 -7.576 -9.327 -10.883 -16.308 c -1.894 -4 -4.04 -8.532 -6.775 -12.989 c -0.712 -0.84 -1.87 -1.139 -2.906 -0.746 l -1.238 0.473 c -0.678 0.259 -1.203 0.772 -1.478 1.443 c -0.275 0.672 -0.26 1.405 0.042 2.066 l 4.432 11.506 c 0.199 0.516 -0.059 1.094 -0.574 1.293 c -0.515 0.199 -1.094 -0.059 -1.293 -0.574 L 30.373 7.843 c -0.503 -1.094 -0.531 -2.427 -0.051 -3.599 s 1.433 -2.103 2.616 -2.554 l 1.238 -0.473 c 1.861 -0.711 3.956 -0.147 5.211 1.4 c 0.027 0.034 0.052 0.069 0.075 0.106 c 2.809 4.57 4.991 9.177 6.915 13.241 c 3.185 6.724 5.935 12.532 10.22 15.525 c 0.453 0.316 0.563 0.939 0.248 1.393 C 56.651 33.159 56.34 33.308 56.025 33.308 z" style="stroke: none; stroke-width: 1; stroke-dasharray: none; stroke-linecap: butt; stroke-linejoin: miter; stroke-miterlimit: 10; fill: rgb(255,255,255); fill-rule: nonzero; opacity: 1;" transform=" matrix(1 0 0 1 0 0) " stroke-linecap="round" />
	<path d="M 20.247 29.774 c -0.243 0 -0.486 -0.088 -0.679 -0.266 l -9.575 -8.867 c -0.9 -0.847 -1.414 -1.986 -1.451 -3.214 c -0.038 -1.228 0.405 -2.397 1.247 -3.291 l 1.259 -1.338 c 1.701 -1.809 4.499 -1.948 6.371 -0.316 l 10.982 9.585 c 0.416 0.363 0.459 0.995 0.096 1.411 c -0.363 0.417 -0.994 0.459 -1.411 0.096 l -10.981 -9.585 c -1.058 -0.921 -2.639 -0.844 -3.599 0.179 l -1.259 1.338 c -0.476 0.506 -0.726 1.166 -0.705 1.86 c 0.021 0.693 0.312 1.337 0.817 1.813 l 9.569 8.861 c 0.405 0.376 0.429 1.008 0.054 1.414 C 20.784 29.666 20.516 29.774 20.247 29.774 z" style="stroke: none; stroke-width: 1; stroke-dasharray: none; stroke-linecap: butt; stroke-linejoin: miter; stroke-miterlimit: 10; fill: rgb(255,255,255); fill-rule: nonzero; opacity: 1;" transform=" matrix(1 0 0 1 0 0) " stroke-linecap="round" />
	<path d="M 15.244 45.673 c -0.132 0 -0.267 -0.026 -0.396 -0.082 L 2.54 40.273 c -2.308 -1.197 -3.191 -3.973 -2.031 -6.22 l 0.36 -0.698 c 1.098 -2.127 3.685 -3.06 5.885 -2.122 l 10.642 3.925 c 0.518 0.191 0.783 0.766 0.592 1.284 c -0.191 0.518 -0.766 0.786 -1.284 0.592 L 6.017 33.091 c -1.289 -0.545 -2.75 -0.02 -3.37 1.181 l -0.36 0.698 c -0.655 1.269 -0.157 2.838 1.111 3.497 l 12.243 5.286 c 0.507 0.219 0.741 0.808 0.522 1.315 C 15.999 45.446 15.63 45.673 15.244 45.673 z" style="stroke: none; stroke-width: 1; stroke-dasharray: none; stroke-linecap: butt; stroke-linejoin: miter; stroke-miterlimit: 10; fill: rgb(255,255,255); fill-rule: nonzero; opacity: 1;" transform=" matrix(1 0 0 1 0 0) " stroke-linecap="round" />
	<path d="M 19.09 61.701 c -0.016 0 -0.032 0 -0.048 -0.001 L 3.81 60.988 c -0.063 -0.003 -0.125 -0.012 -0.187 -0.026 C 1.286 60.4 -0.208 58.184 0.15 55.807 c 0.359 -2.385 2.504 -4.095 4.898 -3.901 l 8.941 -0.472 c 0.556 -0.029 1.023 0.395 1.051 0.946 c 0.029 0.552 -0.395 1.022 -0.946 1.052 l -9.01 0.475 c -0.049 0.003 -0.097 0.002 -0.146 -0.003 c -1.364 -0.135 -2.606 0.838 -2.811 2.199 c -0.197 1.315 0.606 2.542 1.878 2.891 l 15.13 0.707 c 0.551 0.026 0.978 0.494 0.952 1.046 C 20.063 61.283 19.621 61.701 19.09 61.701 z" style="stroke: none; stroke-width: 1; stroke-dasharray: none; stroke-linecap: butt; stroke-linejoin: miter; stroke-miterlimit: 10; fill: rgb(255,255,255); fill-rule: nonzero; opacity: 1;" transform=" matrix(1 0 0 1 0 0) " stroke-linecap="round" />
</g>
</svg>