<?xml version="1.0" encoding="UTF-8" standalone="no" ?>
<!DOCTYPE svg PUBLIC "-//W3C//DTD SVG 1.1//EN" "http://www.w3.org/Graphics/SVG/1.1/DTD/svg11.dtd">
<svg xmlns="http://www.w3.org/2000/svg" xmlns:xlink="http://www.w3.org/1999/xlink" version="1.1" width="350" height="350" viewBox="0 0 350 350" xml:space="preserve">
<desc>Created with Fabric.js 1.7.22</desc>
<defs>
</defs>
<g id="icon" style="stroke: none; stroke-width: 1; stroke-dasharray: none; stroke-linecap: butt; stroke-linejoin: miter; stroke-miterlimit: 10; fill: none; fill-rule: nonzero; opacity: 1;" transform="translate(-1.9444444444444287 -1.9444444444444287) scale(3.89 3.89)" >
	<path d="M 9.179 87.929 c -1.582 0 -3.158 -0.458 -4.574 -1.368 c -3.166 -2.036 -4.914 -5.819 -4.561 -9.872 C 1.99 54.333 9.002 33.806 19.28 20.371 c 2.389 -3.122 6.068 -4.316 9.604 -3.12 c 3.977 1.347 6.546 5.184 6.546 9.776 v 41.055 c 0 3.853 -1.919 7.331 -5.009 9.078 l -17.062 9.648 C 12.038 87.557 10.606 87.929 9.179 87.929 z M 26.16 19.795 c -1.697 0 -3.3 0.835 -4.497 2.399 l 0 0 C 11.721 35.188 4.931 55.146 3.033 76.948 c -0.256 2.94 0.968 5.657 3.195 7.089 c 1.766 1.137 3.826 1.194 5.655 0.16 l 17.062 -9.649 c 2.117 -1.197 3.485 -3.735 3.485 -6.467 V 27.027 c 0 -3.992 -2.429 -6.231 -4.508 -6.935 C 27.332 19.893 26.741 19.795 26.16 19.795 z M 20.472 21.283 h 0.01 H 20.472 z" style="stroke: none; stroke-width: 1; stroke-dasharray: none; stroke-linecap: butt; stroke-linejoin: miter; stroke-miterlimit: 10; fill: rgb(255,255,255); fill-rule: nonzero; opacity: 1;" transform=" matrix(1 0 0 1 0 0) " stroke-linecap="round" />
	<path d="M 80.82 87.929 c -1.427 0 -2.857 -0.372 -4.18 -1.12 L 59.578 77.16 c -3.09 -1.747 -5.009 -5.226 -5.009 -9.078 V 27.027 c 0 -4.592 2.569 -8.429 6.546 -9.776 c 3.535 -1.195 7.215 -0.002 9.605 3.12 l 0 0 c 10.278 13.436 17.289 33.962 19.235 56.318 c 0.353 4.054 -1.395 7.836 -4.562 9.872 C 83.978 87.471 82.401 87.929 80.82 87.929 z M 63.839 19.795 c -0.58 0 -1.172 0.098 -1.762 0.298 c -2.079 0.704 -4.508 2.943 -4.508 6.935 v 41.055 c 0 2.731 1.368 5.27 3.485 6.467 l 17.063 9.649 c 1.828 1.035 3.888 0.977 5.654 -0.16 c 2.227 -1.432 3.451 -4.148 3.195 -7.089 c -1.898 -21.802 -8.689 -41.76 -18.63 -54.754 l 0 0 C 67.141 20.63 65.536 19.795 63.839 19.795 z" style="stroke: none; stroke-width: 1; stroke-dasharray: none; stroke-linecap: butt; stroke-linejoin: miter; stroke-miterlimit: 10; fill: rgb(255,255,255); fill-rule: nonzero; opacity: 1;" transform=" matrix(1 0 0 1 0 0) " stroke-linecap="round" />
	<path d="M 33.93 39.032 c -0.421 0 -0.839 -0.176 -1.136 -0.52 c -0.541 -0.627 -0.471 -1.574 0.156 -2.116 l 2.306 -1.99 c 2.669 -2.305 4.201 -5.649 4.201 -9.176 V 3.571 c 0 -0.829 0.671 -1.5 1.5 -1.5 c 0.829 0 1.5 0.671 1.5 1.5 V 25.23 c 0 4.4 -1.91 8.572 -5.24 11.447 l -2.306 1.99 C 34.627 38.912 34.278 39.032 33.93 39.032 z" style="stroke: none; stroke-width: 1; stroke-dasharray: none; stroke-linecap: butt; stroke-linejoin: miter; stroke-miterlimit: 10; fill: rgb(255,255,255); fill-rule: nonzero; opacity: 1;" transform=" matrix(1 0 0 1 0 0) " stroke-linecap="round" />
	<path d="M 56.068 39.032 c -0.347 0 -0.695 -0.12 -0.979 -0.365 l -2.305 -1.99 c -3.331 -2.875 -5.241 -7.047 -5.241 -11.447 V 3.571 c 0 -0.829 0.672 -1.5 1.5 -1.5 s 1.5 0.671 1.5 1.5 V 25.23 c 0 3.527 1.531 6.872 4.202 9.177 l 2.305 1.99 c 0.627 0.541 0.696 1.488 0.155 2.116 C 56.908 38.855 56.489 39.032 56.068 39.032 z" style="stroke: none; stroke-width: 1; stroke-dasharray: none; stroke-linecap: butt; stroke-linejoin: miter; stroke-miterlimit: 10; fill: rgb(255,255,255); fill-rule: nonzero; opacity: 1;" transform=" matrix(1 0 0 1 0 0) " stroke-linecap="round" />
	<path d="M 56.068 47.827 c -0.312 0 -0.626 -0.097 -0.895 -0.297 l -6.81 -5.07 c -2.015 -1.498 -4.717 -1.498 -6.728 0 l -6.811 5.07 c -0.663 0.494 -1.603 0.357 -2.099 -0.308 c -0.495 -0.664 -0.357 -1.604 0.308 -2.099 l 6.81 -5.07 c 3.083 -2.295 7.227 -2.295 10.311 0 l 6.81 5.07 c 0.665 0.495 0.803 1.435 0.308 2.099 C 56.978 47.618 56.526 47.827 56.068 47.827 z" style="stroke: none; stroke-width: 1; stroke-dasharray: none; stroke-linecap: butt; stroke-linejoin: miter; stroke-miterlimit: 10; fill: rgb(255,255,255); fill-rule: nonzero; opacity: 1;" transform=" matrix(1 0 0 1 0 0) " stroke-linecap="round" />
	<path d="M 18 62.288 c -2.914 0 -5.284 -2.37 -5.284 -5.284 c 0 -2.914 2.37 -5.284 5.284 -5.284 s 5.284 2.37 5.284 5.284 C 23.283 59.918 20.913 62.288 18 62.288 z M 18 54.72 c -1.259 0 -2.284 1.024 -2.284 2.284 c 0 1.26 1.024 2.284 2.284 2.284 c 1.259 0 2.284 -1.024 2.284 -2.284 C 20.283 55.744 19.259 54.72 18 54.72 z" style="stroke: none; stroke-width: 1; stroke-dasharray: none; stroke-linecap: butt; stroke-linejoin: miter; stroke-miterlimit: 10; fill: rgb(255,255,255); fill-rule: nonzero; opacity: 1;" transform=" matrix(1 0 0 1 0 0) " stroke-linecap="round" />
	<path d="M 18 54.72 c -0.829 0 -1.5 -0.672 -1.5 -1.5 v -2.702 c 0 -0.828 0.671 -1.5 1.5 -1.5 s 1.5 0.672 1.5 1.5 v 2.702 C 19.5 54.048 18.828 54.72 18 54.72 z" style="stroke: none; stroke-width: 1; stroke-dasharray: none; stroke-linecap: butt; stroke-linejoin: miter; stroke-miterlimit: 10; fill: rgb(255,255,255); fill-rule: nonzero; opacity: 1;" transform=" matrix(1 0 0 1 0 0) " stroke-linecap="round" />
	<path d="M 18 64.99 c -0.829 0 -1.5 -0.672 -1.5 -1.5 v -2.702 c 0 -0.828 0.671 -1.5 1.5 -1.5 s 1.5 0.672 1.5 1.5 v 2.702 C 19.5 64.318 18.828 64.99 18 64.99 z" style="stroke: none; stroke-width: 1; stroke-dasharray: none; stroke-linecap: butt; stroke-linejoin: miter; stroke-miterlimit: 10; fill: rgb(255,255,255); fill-rule: nonzero; opacity: 1;" transform=" matrix(1 0 0 1 0 0) " stroke-linecap="round" />
	<path d="M 14.216 58.504 h -2.703 c -0.829 0 -1.5 -0.672 -1.5 -1.5 c 0 -0.828 0.671 -1.5 1.5 -1.5 h 2.703 c 0.829 0 1.5 0.672 1.5 1.5 C 15.716 57.832 15.045 58.504 14.216 58.504 z" style="stroke: none; stroke-width: 1; stroke-dasharray: none; stroke-linecap: butt; stroke-linejoin: miter; stroke-miterlimit: 10; fill: rgb(255,255,255); fill-rule: nonzero; opacity: 1;" transform=" matrix(1 0 0 1 0 0) " stroke-linecap="round" />
	<path d="M 24.486 58.504 h -2.703 c -0.829 0 -1.5 -0.672 -1.5 -1.5 c 0 -0.828 0.671 -1.5 1.5 -1.5 h 2.703 c 0.829 0 1.5 0.672 1.5 1.5 C 25.986 57.832 25.315 58.504 24.486 58.504 z" style="stroke: none; stroke-width: 1; stroke-dasharray: none; stroke-linecap: butt; stroke-linejoin: miter; stroke-miterlimit: 10; fill: rgb(255,255,255); fill-rule: nonzero; opacity: 1;" transform=" matrix(1 0 0 1 0 0) " stroke-linecap="round" />
	<path d="M 20.675 55.828 c -0.384 0 -0.768 -0.146 -1.061 -0.439 c -0.586 -0.586 -0.586 -1.535 0 -2.121 l 1.911 -1.911 c 0.586 -0.586 1.536 -0.586 2.122 0 s 0.586 1.535 0 2.121 l -1.911 1.911 C 21.443 55.682 21.059 55.828 20.675 55.828 z" style="stroke: none; stroke-width: 1; stroke-dasharray: none; stroke-linecap: butt; stroke-linejoin: miter; stroke-miterlimit: 10; fill: rgb(255,255,255); fill-rule: nonzero; opacity: 1;" transform=" matrix(1 0 0 1 0 0) " stroke-linecap="round" />
	<path d="M 13.413 63.091 c -0.384 0 -0.768 -0.146 -1.061 -0.439 c -0.586 -0.586 -0.586 -1.535 0 -2.121 l 1.911 -1.911 c 0.586 -0.586 1.536 -0.586 2.122 0 s 0.586 1.535 0 2.121 l -1.911 1.911 C 14.181 62.944 13.797 63.091 13.413 63.091 z" style="stroke: none; stroke-width: 1; stroke-dasharray: none; stroke-linecap: butt; stroke-linejoin: miter; stroke-miterlimit: 10; fill: rgb(255,255,255); fill-rule: nonzero; opacity: 1;" transform=" matrix(1 0 0 1 0 0) " stroke-linecap="round" />
	<path d="M 15.324 55.828 c -0.384 0 -0.768 -0.146 -1.061 -0.439 l -1.911 -1.911 c -0.585 -0.586 -0.585 -1.535 0 -2.121 s 1.536 -0.586 2.122 0 l 1.911 1.911 c 0.585 0.586 0.585 1.535 0 2.121 C 16.091 55.682 15.708 55.828 15.324 55.828 z" style="stroke: none; stroke-width: 1; stroke-dasharray: none; stroke-linecap: butt; stroke-linejoin: miter; stroke-miterlimit: 10; fill: rgb(255,255,255); fill-rule: nonzero; opacity: 1;" transform=" matrix(1 0 0 1 0 0) " stroke-linecap="round" />
	<path d="M 22.586 63.091 c -0.384 0 -0.768 -0.146 -1.061 -0.439 l -1.911 -1.911 c -0.585 -0.586 -0.585 -1.535 0 -2.121 c 0.586 -0.586 1.536 -0.586 2.122 0 l 1.911 1.911 c 0.585 0.586 0.585 1.535 0 2.121 C 23.354 62.944 22.97 63.091 22.586 63.091 z" style="stroke: none; stroke-width: 1; stroke-dasharray: none; stroke-linecap: butt; stroke-linejoin: miter; stroke-miterlimit: 10; fill: rgb(255,255,255); fill-rule: nonzero; opacity: 1;" transform=" matrix(1 0 0 1 0 0) " stroke-linecap="round" />
	<path d="M 69 57.288 c -2.914 0 -5.284 -2.37 -5.284 -5.284 c 0 -2.914 2.37 -5.284 5.284 -5.284 c 2.914 0 5.284 2.37 5.284 5.284 C 74.284 54.918 71.914 57.288 69 57.288 z M 69 49.72 c -1.26 0 -2.284 1.024 -2.284 2.284 c 0 1.26 1.024 2.284 2.284 2.284 c 1.26 0 2.284 -1.024 2.284 -2.284 C 71.284 50.744 70.26 49.72 69 49.72 z" style="stroke: none; stroke-width: 1; stroke-dasharray: none; stroke-linecap: butt; stroke-linejoin: miter; stroke-miterlimit: 10; fill: rgb(255,255,255); fill-rule: nonzero; opacity: 1;" transform=" matrix(1 0 0 1 0 0) " stroke-linecap="round" />
	<path d="M 69 49.72 c -0.828 0 -1.5 -0.672 -1.5 -1.5 v -2.702 c 0 -0.829 0.672 -1.5 1.5 -1.5 c 0.828 0 1.5 0.671 1.5 1.5 v 2.702 C 70.5 49.048 69.828 49.72 69 49.72 z" style="stroke: none; stroke-width: 1; stroke-dasharray: none; stroke-linecap: butt; stroke-linejoin: miter; stroke-miterlimit: 10; fill: rgb(255,255,255); fill-rule: nonzero; opacity: 1;" transform=" matrix(1 0 0 1 0 0) " stroke-linecap="round" />
	<path d="M 69 59.99 c -0.828 0 -1.5 -0.672 -1.5 -1.5 v -2.702 c 0 -0.828 0.672 -1.5 1.5 -1.5 c 0.828 0 1.5 0.672 1.5 1.5 v 2.702 C 70.5 59.318 69.828 59.99 69 59.99 z" style="stroke: none; stroke-width: 1; stroke-dasharray: none; stroke-linecap: butt; stroke-linejoin: miter; stroke-miterlimit: 10; fill: rgb(255,255,255); fill-rule: nonzero; opacity: 1;" transform=" matrix(1 0 0 1 0 0) " stroke-linecap="round" />
	<path d="M 65.216 53.504 h -2.702 c -0.828 0 -1.5 -0.672 -1.5 -1.5 c 0 -0.828 0.672 -1.5 1.5 -1.5 h 2.702 c 0.828 0 1.5 0.672 1.5 1.5 C 66.716 52.832 66.044 53.504 65.216 53.504 z" style="stroke: none; stroke-width: 1; stroke-dasharray: none; stroke-linecap: butt; stroke-linejoin: miter; stroke-miterlimit: 10; fill: rgb(255,255,255); fill-rule: nonzero; opacity: 1;" transform=" matrix(1 0 0 1 0 0) " stroke-linecap="round" />
	<path d="M 75.486 53.504 h -2.702 c -0.828 0 -1.5 -0.672 -1.5 -1.5 c 0 -0.828 0.672 -1.5 1.5 -1.5 h 2.702 c 0.828 0 1.5 0.672 1.5 1.5 C 76.986 52.832 76.314 53.504 75.486 53.504 z" style="stroke: none; stroke-width: 1; stroke-dasharray: none; stroke-linecap: butt; stroke-linejoin: miter; stroke-miterlimit: 10; fill: rgb(255,255,255); fill-rule: nonzero; opacity: 1;" transform=" matrix(1 0 0 1 0 0) " stroke-linecap="round" />
	<path d="M 71.676 50.828 c -0.384 0 -0.768 -0.146 -1.061 -0.439 c -0.586 -0.586 -0.586 -1.535 0 -2.121 l 1.911 -1.911 c 0.586 -0.586 1.535 -0.586 2.121 0 c 0.586 0.586 0.586 1.535 0 2.121 l -1.911 1.911 C 72.443 50.682 72.06 50.828 71.676 50.828 z" style="stroke: none; stroke-width: 1; stroke-dasharray: none; stroke-linecap: butt; stroke-linejoin: miter; stroke-miterlimit: 10; fill: rgb(255,255,255); fill-rule: nonzero; opacity: 1;" transform=" matrix(1 0 0 1 0 0) " stroke-linecap="round" />
	<path d="M 64.413 58.091 c -0.384 0 -0.768 -0.146 -1.061 -0.439 c -0.586 -0.586 -0.586 -1.535 0 -2.121 l 1.911 -1.911 c 0.586 -0.586 1.535 -0.586 2.121 0 c 0.586 0.586 0.586 1.535 0 2.121 l -1.911 1.911 C 65.181 57.944 64.797 58.091 64.413 58.091 z" style="stroke: none; stroke-width: 1; stroke-dasharray: none; stroke-linecap: butt; stroke-linejoin: miter; stroke-miterlimit: 10; fill: rgb(255,255,255); fill-rule: nonzero; opacity: 1;" transform=" matrix(1 0 0 1 0 0) " stroke-linecap="round" />
	<path d="M 66.324 50.828 c -0.384 0 -0.768 -0.146 -1.061 -0.439 l -1.911 -1.911 c -0.586 -0.586 -0.586 -1.535 0 -2.121 s 1.535 -0.586 2.121 0 l 1.911 1.911 c 0.586 0.586 0.586 1.535 0 2.121 C 67.092 50.682 66.708 50.828 66.324 50.828 z" style="stroke: none; stroke-width: 1; stroke-dasharray: none; stroke-linecap: butt; stroke-linejoin: miter; stroke-miterlimit: 10; fill: rgb(255,255,255); fill-rule: nonzero; opacity: 1;" transform=" matrix(1 0 0 1 0 0) " stroke-linecap="round" />
	<path d="M 73.587 58.091 c -0.384 0 -0.768 -0.146 -1.061 -0.439 l -1.911 -1.911 c -0.586 -0.586 -0.586 -1.535 0 -2.121 c 0.586 -0.586 1.535 -0.586 2.121 0 l 1.911 1.911 c 0.586 0.586 0.586 1.535 0 2.121 C 74.354 57.944 73.971 58.091 73.587 58.091 z" style="stroke: none; stroke-width: 1; stroke-dasharray: none; stroke-linecap: butt; stroke-linejoin: miter; stroke-miterlimit: 10; fill: rgb(255,255,255); fill-rule: nonzero; opacity: 1;" transform=" matrix(1 0 0 1 0 0) " stroke-linecap="round" />
	<path d="M 64.236 69.544 c -1.057 0 -1.916 -0.859 -1.916 -1.916 s 0.859 -1.916 1.916 -1.916 s 1.916 0.859 1.916 1.916 S 65.293 69.544 64.236 69.544 z" style="stroke: none; stroke-width: 1; stroke-dasharray: none; stroke-linecap: butt; stroke-linejoin: miter; stroke-miterlimit: 10; fill: rgb(255,255,255); fill-rule: nonzero; opacity: 1;" transform=" matrix(1 0 0 1 0 0) " stroke-linecap="round" />
	<path d="M 78.039 77.596 c -1.057 0 -1.916 -0.859 -1.916 -1.916 c 0 -1.057 0.859 -1.916 1.916 -1.916 c 1.057 0 1.916 0.859 1.916 1.916 C 79.955 76.737 79.096 77.596 78.039 77.596 z" style="stroke: none; stroke-width: 1; stroke-dasharray: none; stroke-linecap: butt; stroke-linejoin: miter; stroke-miterlimit: 10; fill: rgb(255,255,255); fill-rule: nonzero; opacity: 1;" transform=" matrix(1 0 0 1 0 0) " stroke-linecap="round" />
	<path d="M 78.039 66.093 c -1.057 0 -1.916 -0.859 -1.916 -1.916 s 0.859 -1.916 1.916 -1.916 c 1.057 0 1.916 0.859 1.916 1.916 S 79.096 66.093 78.039 66.093 z" style="stroke: none; stroke-width: 1; stroke-dasharray: none; stroke-linecap: butt; stroke-linejoin: miter; stroke-miterlimit: 10; fill: rgb(255,255,255); fill-rule: nonzero; opacity: 1;" transform=" matrix(1 0 0 1 0 0) " stroke-linecap="round" />
	<path d="M 63.086 31.585 c -1.057 0 -1.916 -0.86 -1.916 -1.917 s 0.859 -1.916 1.916 -1.916 s 1.916 0.859 1.916 1.916 S 64.143 31.585 63.086 31.585 z" style="stroke: none; stroke-width: 1; stroke-dasharray: none; stroke-linecap: butt; stroke-linejoin: miter; stroke-miterlimit: 10; fill: rgb(255,255,255); fill-rule: nonzero; opacity: 1;" transform=" matrix(1 0 0 1 0 0) " stroke-linecap="round" />
	<path d="M 71.138 38.486 c -1.057 0 -1.916 -0.859 -1.916 -1.916 s 0.859 -1.917 1.916 -1.917 s 1.916 0.86 1.916 1.917 S 72.194 38.486 71.138 38.486 z" style="stroke: none; stroke-width: 1; stroke-dasharray: none; stroke-linecap: butt; stroke-linejoin: miter; stroke-miterlimit: 10; fill: rgb(255,255,255); fill-rule: nonzero; opacity: 1;" transform=" matrix(1 0 0 1 0 0) " stroke-linecap="round" />
	<path d="M 10.172 75.295 c -1.057 0 -1.916 -0.859 -1.916 -1.916 s 0.859 -1.916 1.916 -1.916 s 1.917 0.859 1.917 1.916 S 11.229 75.295 10.172 75.295 z" style="stroke: none; stroke-width: 1; stroke-dasharray: none; stroke-linecap: butt; stroke-linejoin: miter; stroke-miterlimit: 10; fill: rgb(255,255,255); fill-rule: nonzero; opacity: 1;" transform=" matrix(1 0 0 1 0 0) " stroke-linecap="round" />
	<path d="M 26.277 46.538 c -1.057 0 -1.916 -0.859 -1.916 -1.916 s 0.859 -1.916 1.916 -1.916 c 1.057 0 1.916 0.859 1.916 1.916 S 27.333 46.538 26.277 46.538 z" style="stroke: none; stroke-width: 1; stroke-dasharray: none; stroke-linecap: butt; stroke-linejoin: miter; stroke-miterlimit: 10; fill: rgb(255,255,255); fill-rule: nonzero; opacity: 1;" transform=" matrix(1 0 0 1 0 0) " stroke-linecap="round" />
	<path d="M 18.225 37.336 c -1.057 0 -1.917 -0.859 -1.917 -1.916 s 0.86 -1.916 1.917 -1.916 c 1.057 0 1.916 0.859 1.916 1.916 S 19.281 37.336 18.225 37.336 z" style="stroke: none; stroke-width: 1; stroke-dasharray: none; stroke-linecap: butt; stroke-linejoin: miter; stroke-miterlimit: 10; fill: rgb(255,255,255); fill-rule: nonzero; opacity: 1;" transform=" matrix(1 0 0 1 0 0) " stroke-linecap="round" />
	<path d="M 22.826 74.145 c -1.057 0 -1.917 -0.859 -1.917 -1.916 s 0.86 -1.916 1.917 -1.916 s 1.916 0.859 1.916 1.916 S 23.882 74.145 22.826 74.145 z" style="stroke: none; stroke-width: 1; stroke-dasharray: none; stroke-linecap: butt; stroke-linejoin: miter; stroke-miterlimit: 10; fill: rgb(255,255,255); fill-rule: nonzero; opacity: 1;" transform=" matrix(1 0 0 1 0 0) " stroke-linecap="round" />
	<path d="M 25.126 28.134 c -1.057 0 -1.916 -0.859 -1.916 -1.916 c 0 -1.057 0.859 -1.917 1.916 -1.917 c 1.057 0 1.917 0.86 1.917 1.917 C 27.043 27.274 26.183 28.134 25.126 28.134 z" style="stroke: none; stroke-width: 1; stroke-dasharray: none; stroke-linecap: butt; stroke-linejoin: miter; stroke-miterlimit: 10; fill: rgb(255,255,255); fill-rule: nonzero; opacity: 1;" transform=" matrix(1 0 0 1 0 0) " stroke-linecap="round" />
</g>
</svg>