<?xml version="1.0" encoding="UTF-8" standalone="no" ?>
<!DOCTYPE svg PUBLIC "-//W3C//DTD SVG 1.1//EN" "http://www.w3.org/Graphics/SVG/1.1/DTD/svg11.dtd">
<svg xmlns="http://www.w3.org/2000/svg" xmlns:xlink="http://www.w3.org/1999/xlink" version="1.1" width="350" height="350" viewBox="0 0 350 350" xml:space="preserve">
<desc>Created with Fabric.js 1.7.22</desc>
<defs>
</defs>
<g id="icon" style="stroke: none; stroke-width: 1; stroke-dasharray: none; stroke-linecap: butt; stroke-linejoin: miter; stroke-miterlimit: 10; fill: none; fill-rule: nonzero; opacity: 1;" transform="translate(-1.9444444444444287 -1.9444444444444287) scale(3.89 3.89)" >
	<path d="M 63.501 53.249 c -1.694 -2.314 -3.615 -4.937 -3.829 -6.779 c -0.194 -2.535 -0.371 -5.026 -0.543 -7.455 C 57.582 17.217 56.361 0 45 0 C 33.638 0 32.417 17.218 30.871 39.017 c -0.172 2.428 -0.349 4.918 -0.538 7.396 c -0.219 1.899 -2.14 4.522 -3.834 6.836 c -2.488 3.397 -4.837 6.606 -3.554 9.311 c 0.812 1.71 2.858 2.67 6.406 3.004 V 83.76 c 0 3.44 2.8 6.24 6.241 6.24 s 6.241 -2.8 6.241 -6.24 V 70.471 c 0.929 0.295 1.964 0.48 3.167 0.48 c 3.299 0 5.349 -1.365 7.332 -2.686 c 1.971 -1.313 3.832 -2.552 7.215 -2.613 c 4.226 -0.221 6.611 -1.203 7.508 -3.093 C 68.339 59.855 65.989 56.646 63.501 53.249 z M 38.833 83.76 c 0 1.787 -1.454 3.24 -3.241 3.24 s -3.241 -1.453 -3.241 -3.24 V 65.838 c 2.232 0.393 3.746 1.382 5.317 2.428 c 0.382 0.254 0.769 0.507 1.164 0.755 V 83.76 z M 64.345 61.272 c -0.128 0.271 -0.865 1.171 -4.902 1.382 c -4.21 0.075 -6.635 1.689 -8.773 3.114 c -1.831 1.22 -3.277 2.183 -5.669 2.183 s -3.838 -0.963 -5.669 -2.183 c -2.139 -1.425 -4.563 -3.039 -8.722 -3.112 c -4.088 -0.213 -4.826 -1.113 -4.954 -1.384 c -0.517 -1.088 1.668 -4.071 3.264 -6.251 c 2.008 -2.741 4.084 -5.577 4.399 -8.321 c 0.195 -2.541 0.372 -5.037 0.545 -7.471 C 35.299 18.988 36.433 3 45 3 c 8.566 0 9.7 15.987 11.136 36.227 c 0.173 2.435 0.35 4.932 0.551 7.53 c 0.311 2.688 2.387 5.522 4.395 8.265 C 62.677 57.2 64.861 60.185 64.345 61.272 z" style="stroke: none; stroke-width: 1; stroke-dasharray: none; stroke-linecap: butt; stroke-linejoin: miter; stroke-miterlimit: 10; fill: rgb(255,255,255); fill-rule: nonzero; opacity: 1;" transform=" matrix(1 0 0 1 0 0) " stroke-linecap="round" />
	<path d="M 57.663 86.928 c -3.329 0 -6.037 -2.708 -6.037 -6.037 c -0.017 -2.043 1.178 -3.55 2.333 -5.007 c 1.134 -1.43 2.204 -2.78 2.204 -4.653 c 0 -0.828 0.672 -1.5 1.5 -1.5 s 1.5 0.672 1.5 1.5 c 0 1.873 1.07 3.224 2.204 4.653 c 1.155 1.457 2.35 2.964 2.333 5.02 C 63.7 84.22 60.992 86.928 57.663 86.928 z M 57.663 75.92 c -0.436 0.671 -0.913 1.272 -1.354 1.827 c -0.907 1.146 -1.692 2.135 -1.684 3.131 c 0 1.688 1.362 3.05 3.037 3.05 s 3.037 -1.362 3.037 -3.037 c 0.009 -1.009 -0.776 -1.998 -1.684 -3.144 C 58.576 77.192 58.099 76.591 57.663 75.92 z" style="stroke: none; stroke-width: 1; stroke-dasharray: none; stroke-linecap: butt; stroke-linejoin: miter; stroke-miterlimit: 10; fill: rgb(255,255,255); fill-rule: nonzero; opacity: 1;" transform=" matrix(1 0 0 1 0 0) " stroke-linecap="round" />
</g>
</svg>