<?xml version="1.0" encoding="UTF-8" standalone="no" ?>
<!DOCTYPE svg PUBLIC "-//W3C//DTD SVG 1.1//EN" "http://www.w3.org/Graphics/SVG/1.1/DTD/svg11.dtd">
<svg xmlns="http://www.w3.org/2000/svg" xmlns:xlink="http://www.w3.org/1999/xlink" version="1.1" width="350" height="350" viewBox="0 0 350 350" xml:space="preserve">
<desc>Created with Fabric.js 1.7.22</desc>
<defs>
</defs>
<g id="icon" style="stroke: none; stroke-width: 1; stroke-dasharray: none; stroke-linecap: butt; stroke-linejoin: miter; stroke-miterlimit: 10; fill: none; fill-rule: nonzero; opacity: 1;" transform="translate(-1.9444444444444287 -1.9444444444444287) scale(3.89 3.89)" >
	<path d="M 41.664 36.393 c -0.218 0 -0.438 -0.048 -0.648 -0.148 c -1.838 -0.883 -3.625 -0.882 -5.463 0 c -0.747 0.356 -1.643 0.043 -2.001 -0.704 c -0.358 -0.747 -0.043 -1.643 0.704 -2.001 c 2.674 -1.282 5.385 -1.282 8.059 0 c 0.747 0.358 1.062 1.254 0.704 2.001 C 42.759 36.079 42.223 36.393 41.664 36.393 z" style="stroke: none; stroke-width: 1; stroke-dasharray: none; stroke-linecap: butt; stroke-linejoin: miter; stroke-miterlimit: 10; fill: rgb(255,255,255); fill-rule: nonzero; opacity: 1;" transform=" matrix(1 0 0 1 0 0) " stroke-linecap="round" />
	<path d="M 54.516 36.393 c -0.218 0 -0.438 -0.048 -0.648 -0.148 c -1.836 -0.881 -3.622 -0.882 -5.462 0 c -0.748 0.357 -1.644 0.044 -2.002 -0.704 c -0.358 -0.747 -0.043 -1.643 0.703 -2.001 c 2.674 -1.281 5.386 -1.282 8.06 0 c 0.746 0.358 1.062 1.254 0.703 2.001 C 55.611 36.079 55.074 36.393 54.516 36.393 z" style="stroke: none; stroke-width: 1; stroke-dasharray: none; stroke-linecap: butt; stroke-linejoin: miter; stroke-miterlimit: 10; fill: rgb(255,255,255); fill-rule: nonzero; opacity: 1;" transform=" matrix(1 0 0 1 0 0) " stroke-linecap="round" />
	<path d="M 50.952 44.259 H 39.048 c -0.829 0 -1.5 -0.671 -1.5 -1.5 s 0.671 -1.5 1.5 -1.5 h 11.904 c 0.828 0 1.5 0.671 1.5 1.5 S 51.78 44.259 50.952 44.259 z" style="stroke: none; stroke-width: 1; stroke-dasharray: none; stroke-linecap: butt; stroke-linejoin: miter; stroke-miterlimit: 10; fill: rgb(255,255,255); fill-rule: nonzero; opacity: 1;" transform=" matrix(1 0 0 1 0 0) " stroke-linecap="round" />
	<path d="M 76.841 38.48 c -3.166 0 -5.742 -2.576 -5.742 -5.743 c -0.017 -1.944 1.111 -3.367 2.202 -4.743 c 1.05 -1.323 2.04 -2.572 2.04 -4.29 c 0 -0.829 0.672 -1.5 1.5 -1.5 s 1.5 0.671 1.5 1.5 c 0 1.717 0.99 2.967 2.04 4.29 c 1.091 1.376 2.219 2.799 2.202 4.756 C 82.583 35.904 80.007 38.48 76.841 38.48 z M 76.841 28.267 c -0.387 0.581 -0.803 1.105 -1.188 1.592 c -0.838 1.056 -1.562 1.969 -1.554 2.866 c 0 1.525 1.23 2.755 2.742 2.755 s 2.742 -1.23 2.742 -2.743 c 0.008 -0.91 -0.716 -1.823 -1.554 -2.879 C 77.644 29.372 77.228 28.848 76.841 28.267 z" style="stroke: none; stroke-width: 1; stroke-dasharray: none; stroke-linecap: butt; stroke-linejoin: miter; stroke-miterlimit: 10; fill: rgb(255,255,255); fill-rule: nonzero; opacity: 1;" transform=" matrix(1 0 0 1 0 0) " stroke-linecap="round" />
	<path d="M 67.136 57.631 l -0.698 -0.128 V 27.02 v -5.582 C 66.438 9.617 56.82 0 45 0 C 33.179 0 23.562 9.617 23.562 21.438 v 5.582 v 30.483 l -0.699 0.128 c -4.836 0.885 -8.346 5.095 -8.346 10.01 v 18.254 c 0 2.264 1.842 4.105 4.106 4.105 h 52.752 c 2.265 0 4.106 -1.842 4.106 -4.105 V 67.641 C 75.482 62.726 71.973 58.516 67.136 57.631 z M 59.313 56.201 c -2.316 -0.424 -3.998 -2.44 -3.998 -4.795 v -0.943 c 0.336 -0.294 0.682 -0.574 1.002 -0.89 c 0.938 -0.93 1.796 -1.949 2.549 -3.029 c 0.755 -1.082 1.416 -2.242 1.964 -3.447 c 1.037 -2.281 1.669 -4.704 1.878 -7.203 l 0.73 -8.731 v 29.792 L 59.313 56.201 z M 34.381 25.509 c 0.749 2.302 2.912 3.971 5.46 3.971 c 3.167 0 5.743 -2.576 5.743 -5.73 c 0.005 -0.553 -0.09 -1.061 -0.242 -1.54 c 2.07 -0.947 3.837 -2.019 5.308 -3.262 c 2.87 3.194 5.642 5.35 9.822 7.667 l -0.756 9.029 c -0.18 2.155 -0.725 4.245 -1.618 6.21 c -0.473 1.039 -1.043 2.04 -1.694 2.974 c -0.649 0.932 -1.389 1.811 -2.198 2.612 c -1.95 1.929 -4.248 3.38 -6.831 4.313 c -1.531 0.555 -3.219 0.555 -4.75 0 c -6.887 -2.489 -11.732 -8.813 -12.342 -16.109 l -0.779 -9.313 C 31.253 26.078 32.867 25.805 34.381 25.509 z M 42.583 23.738 c 0 1.512 -1.23 2.743 -2.743 2.743 s -2.743 -1.23 -2.743 -2.755 c -0.007 -0.897 0.716 -1.81 1.554 -2.866 c 0.386 -0.487 0.802 -1.012 1.189 -1.592 c 0.387 0.581 0.803 1.105 1.189 1.592 C 41.868 21.916 42.591 22.828 42.583 23.738 z M 37.585 52.625 c 1.257 0.777 2.599 1.437 4.02 1.951 C 42.7 54.972 43.85 55.169 45 55.169 c 1.15 0 2.3 -0.197 3.395 -0.594 c 1.419 -0.513 2.757 -1.17 4.02 -1.948 c 0.419 2.68 2.194 4.945 4.665 6.006 c -2.615 6.911 -6.658 12.61 -12.08 16.94 c -5.421 -4.329 -9.464 -10.028 -12.079 -16.94 C 35.392 57.572 37.167 55.307 37.585 52.625 z M 45 3 c 10.166 0 18.438 8.271 18.438 18.438 v 3.803 c -0.126 -0.332 -0.355 -0.622 -0.681 -0.797 c -4.819 -2.583 -7.657 -4.836 -10.843 -8.613 c -0.271 -0.323 -0.667 -0.516 -1.089 -0.532 c -0.419 -0.016 -0.83 0.146 -1.126 0.446 c -1.483 1.506 -3.404 2.772 -5.844 3.858 c -0.157 -0.204 -0.316 -0.407 -0.475 -0.608 c -1.049 -1.323 -2.04 -2.572 -2.04 -4.29 c 0 -0.829 -0.671 -1.5 -1.5 -1.5 s -1.5 0.671 -1.5 1.5 c 0 1.718 -0.991 2.967 -2.04 4.29 c -0.839 1.058 -1.694 2.146 -2.04 3.475 c -1.983 0.4 -4.136 0.759 -6.57 1.086 c -0.5 0.067 -0.911 0.376 -1.129 0.794 v -2.912 C 26.562 11.271 34.833 3 45 3 z M 26.562 27.147 l 0.731 8.747 c 0.478 5.723 3.208 10.923 7.392 14.587 v 0.925 c 0 2.354 -1.681 4.371 -3.998 4.795 l -4.126 0.754 V 27.147 z M 23.403 60.582 l 6.596 -1.205 c 2.953 7.973 7.678 14.471 14.101 19.292 l 0.9 0.677 l 0.9 -0.677 c 6.424 -4.821 11.148 -11.319 14.102 -19.292 l 6.595 1.205 c 3.41 0.624 5.886 3.593 5.886 7.059 v 0.39 l -8.496 7.655 c -1.952 1.761 -3.071 4.277 -3.071 6.904 V 87 h -31.83 v -4.41 c 0 -2.628 -1.12 -5.145 -3.072 -6.904 l -8.495 -7.655 v -0.39 C 17.518 64.175 19.993 61.206 23.403 60.582 z M 17.518 85.895 V 72.069 l 6.487 5.845 c 1.322 1.191 2.081 2.896 2.081 4.676 V 87 h -7.461 C 18.014 87 17.518 86.504 17.518 85.895 z M 71.376 87 h -7.461 v -4.41 c 0 -1.779 0.759 -3.483 2.08 -4.676 l 6.487 -5.845 v 13.826 C 72.482 86.504 71.986 87 71.376 87 z" style="stroke: none; stroke-width: 1; stroke-dasharray: none; stroke-linecap: butt; stroke-linejoin: miter; stroke-miterlimit: 10; fill: rgb(255,255,255); fill-rule: nonzero; opacity: 1;" transform=" matrix(1 0 0 1 0 0) " stroke-linecap="round" />
	<path d="M 18.583 45.75 c 0.016 -1.956 -1.112 -3.379 -2.203 -4.755 c -1.049 -1.323 -2.04 -2.572 -2.04 -4.29 c 0 -0.829 -0.671 -1.5 -1.5 -1.5 s -1.5 0.671 -1.5 1.5 c 0 1.718 -0.991 2.967 -2.04 4.29 c -1.091 1.376 -2.219 2.799 -2.203 4.743 c 0 3.167 2.576 5.743 5.743 5.743 S 18.583 48.904 18.583 45.75 z M 12.841 48.48 c -1.512 0 -2.743 -1.23 -2.743 -2.755 c -0.007 -0.897 0.716 -1.81 1.554 -2.866 c 0.386 -0.487 0.802 -1.012 1.189 -1.592 c 0.387 0.581 0.803 1.105 1.189 1.592 c 0.838 1.056 1.561 1.969 1.554 2.878 C 15.583 47.25 14.353 48.48 12.841 48.48 z" style="stroke: none; stroke-width: 1; stroke-dasharray: none; stroke-linecap: butt; stroke-linejoin: miter; stroke-miterlimit: 10; fill: rgb(255,255,255); fill-rule: nonzero; opacity: 1;" transform=" matrix(1 0 0 1 0 0) " stroke-linecap="round" />
</g>
</svg>