<?xml version="1.0" encoding="UTF-8" standalone="no" ?>
<!DOCTYPE svg PUBLIC "-//W3C//DTD SVG 1.1//EN" "http://www.w3.org/Graphics/SVG/1.1/DTD/svg11.dtd">
<svg xmlns="http://www.w3.org/2000/svg" xmlns:xlink="http://www.w3.org/1999/xlink" version="1.1" width="350" height="350" viewBox="0 0 350 350" xml:space="preserve">
<desc>Created with Fabric.js 1.7.22</desc>
<defs>
</defs>
<g id="icon" style="stroke: none; stroke-width: 1; stroke-dasharray: none; stroke-linecap: butt; stroke-linejoin: miter; stroke-miterlimit: 10; fill: none; fill-rule: nonzero; opacity: 1;" transform="translate(-1.9444444444444287 -1.9444444444444287) scale(3.89 3.89)" >
	<path d="M 45 81.388 c -5.813 0 -10.542 -4.729 -10.542 -10.541 c 0 -0.828 0.671 -1.5 1.5 -1.5 s 1.5 0.672 1.5 1.5 c 0 4.158 3.383 7.541 7.542 7.541 s 7.541 -3.383 7.541 -7.541 S 49.158 63.306 45 63.306 c -0.829 0 -1.5 -0.672 -1.5 -1.5 V 30.684 c 0 -0.829 0.671 -1.5 1.5 -1.5 s 1.5 0.671 1.5 1.5 v 29.728 c 5.104 0.73 9.041 5.131 9.041 10.435 C 55.541 76.659 50.813 81.388 45 81.388 z" style="stroke: none; stroke-width: 1; stroke-dasharray: none; stroke-linecap: butt; stroke-linejoin: miter; stroke-miterlimit: 10; fill: rgb(255,255,255); fill-rule: nonzero; opacity: 1;" transform=" matrix(1 0 0 1 0 0) " stroke-linecap="round" />
	<path d="M 54.538 52.063 V 8.61 c 0 -4.748 -3.862 -8.61 -8.609 -8.61 h -1.857 c -4.748 0 -8.61 3.862 -8.61 8.61 v 43.454 c -6.487 3.492 -10.628 10.365 -10.628 17.771 C 24.833 80.953 33.88 90 45 90 c 11.119 0 20.166 -9.047 20.166 -20.166 C 65.166 62.429 61.024 55.556 54.538 52.063 z M 45 87 c -9.466 0 -17.167 -7.7 -17.167 -17.166 c 0 -6.576 3.837 -12.659 9.775 -15.497 c 0.521 -0.249 0.853 -0.775 0.853 -1.354 V 24.415 H 45 c 0.829 0 1.5 -0.671 1.5 -1.5 s -0.671 -1.5 -1.5 -1.5 h -6.539 v -3.845 H 45 c 0.829 0 1.5 -0.671 1.5 -1.5 s -0.671 -1.5 -1.5 -1.5 h -6.539 v -3.845 H 45 c 0.829 0 1.5 -0.671 1.5 -1.5 s -0.671 -1.5 -1.5 -1.5 h -6.462 C 38.965 5.051 41.28 3 44.071 3 h 1.857 c 3.093 0 5.609 2.517 5.609 5.61 v 44.374 c 0 0.578 0.332 1.104 0.854 1.354 c 5.938 2.838 9.774 8.921 9.774 15.497 C 62.166 79.3 54.466 87 45 87 z" style="stroke: none; stroke-width: 1; stroke-dasharray: none; stroke-linecap: butt; stroke-linejoin: miter; stroke-miterlimit: 10; fill: rgb(255,255,255); fill-rule: nonzero; opacity: 1;" transform=" matrix(1 0 0 1 0 0) " stroke-linecap="round" />
	<circle cx="45.003" cy="70.723" r="2.313" style="stroke: none; stroke-width: 1; stroke-dasharray: none; stroke-linecap: butt; stroke-linejoin: miter; stroke-miterlimit: 10; fill: rgb(255,255,255); fill-rule: nonzero; opacity: 1;" transform="  matrix(1 0 0 1 0 0) "/>
</g>
</svg>