<?xml version="1.0" encoding="UTF-8" standalone="no" ?>
<!DOCTYPE svg PUBLIC "-//W3C//DTD SVG 1.1//EN" "http://www.w3.org/Graphics/SVG/1.1/DTD/svg11.dtd">
<svg xmlns="http://www.w3.org/2000/svg" xmlns:xlink="http://www.w3.org/1999/xlink" version="1.1" width="445" height="445" viewBox="0 0 445 445" xml:space="preserve">
<desc>Created with Fabric.js 1.7.22</desc>
<defs>
</defs>
<g id="icon" style="stroke: none; stroke-width: 1; stroke-dasharray: none; stroke-linecap: butt; stroke-linejoin: miter; stroke-miterlimit: 10; fill: none; fill-rule: nonzero; opacity: 1;" transform="translate(-2.4722222222222285 -2.4722222222222285) scale(4.94 4.94)" >
	<path d="M 32.795 87.558 c -1.023 0 -2.051 -0.113 -3.057 -0.337 l -11.042 -2.463 c -1.187 -0.265 -2.407 -0.399 -3.627 -0.399 H 1 c -0.552 0 -1 -0.447 -1 -1 V 69.85 c 0 -0.267 0.106 -0.521 0.295 -0.71 C 0.483 68.954 0.736 68.85 1 68.85 c 0.002 0 0.005 0 0.007 0 l 11.362 0.08 c 0.444 -0.023 0.858 -0.157 1.196 -0.452 c 4.158 -3.633 8.005 -6.185 14.328 -7.677 c 4.311 -0.965 8.748 -3.398 13.576 -7.443 c 1.431 -1.201 3.525 -1.219 4.976 -0.044 c 0.821 0.665 1.329 1.611 1.432 2.664 c 0.102 1.05 -0.214 2.073 -0.888 2.88 c -4.013 4.805 -7.739 8.192 -11.345 10.308 c 6.059 3.817 18.682 1.57 28.063 -0.1 c 2.112 -0.378 4.187 0.892 4.816 2.948 c 0.638 2.084 -0.391 4.305 -2.394 5.165 L 44.47 86.326 c -1.699 0.729 -3.501 1.114 -5.352 1.141 l -6.11 0.089 C 32.937 87.557 32.866 87.558 32.795 87.558 z M 2 82.358 h 13.068 c 1.367 0 2.733 0.15 4.063 0.448 l 11.041 2.462 c 0.923 0.204 1.863 0.298 2.805 0.287 l 6.111 -0.089 h 0 c 1.588 -0.022 3.134 -0.353 4.597 -0.98 l 21.659 -9.147 c 1.057 -0.455 1.604 -1.634 1.265 -2.739 c -0.334 -1.092 -1.44 -1.763 -2.554 -1.565 c -10.438 1.857 -24.733 4.403 -30.921 -1.272 c -0.243 -0.223 -0.36 -0.55 -0.314 -0.876 c 0.045 -0.326 0.249 -0.608 0.542 -0.756 c 3.787 -1.896 7.741 -5.348 12.09 -10.554 c 0.328 -0.394 0.481 -0.893 0.432 -1.405 c -0.05 -0.516 -0.298 -0.979 -0.699 -1.304 c -0.708 -0.572 -1.732 -0.564 -2.432 0.023 c -5.079 4.255 -9.793 6.826 -14.413 7.859 c -5.935 1.401 -9.431 3.714 -13.459 7.233 c -0.699 0.611 -1.585 0.946 -2.499 0.946 c -0.009 0 -0.018 0 -0.027 0 L 2 70.856 V 82.358 z" style="stroke: none; stroke-width: 1; stroke-dasharray: none; stroke-linecap: butt; stroke-linejoin: miter; stroke-miterlimit: 10; fill: rgb(255,255,255); fill-rule: nonzero; opacity: 1;" transform=" matrix(1 0 0 1 0 0) " stroke-linecap="round" />
	<path d="M 55.595 54.442 c -0.553 0 -1 -0.447 -1 -1 V 35.822 c 0 -0.552 0.447 -1 1 -1 s 1 0.448 1 1 v 17.621 C 56.595 53.995 56.147 54.442 55.595 54.442 z" style="stroke: none; stroke-width: 1; stroke-dasharray: none; stroke-linecap: butt; stroke-linejoin: miter; stroke-miterlimit: 10; fill: rgb(255,255,255); fill-rule: nonzero; opacity: 1;" transform=" matrix(1 0 0 1 0 0) " stroke-linecap="round" />
	<path d="M 89 87.434 H 61.833 c -0.282 0 -0.552 -0.119 -0.741 -0.329 c -0.189 -0.209 -0.282 -0.488 -0.254 -0.77 l 0.884 -8.899 c 0.054 -0.551 0.559 -0.945 1.094 -0.896 c 0.55 0.055 0.951 0.544 0.896 1.094 l -0.774 7.801 h 24.958 l -3.712 -37.386 c -0.243 -2.448 -2.282 -4.294 -4.743 -4.294 h -8.048 c -2.461 0 -4.5 1.846 -4.743 4.294 l -2.202 22.177 c -0.054 0.55 -0.552 0.942 -1.094 0.896 c -0.55 -0.055 -0.951 -0.544 -0.896 -1.094 l 2.202 -22.177 c 0.346 -3.476 3.24 -6.097 6.733 -6.097 h 8.048 c 3.493 0 6.388 2.621 6.733 6.097 l 3.821 38.484 c 0.028 0.281 -0.064 0.561 -0.254 0.77 C 89.552 87.314 89.282 87.434 89 87.434 z" style="stroke: none; stroke-width: 1; stroke-dasharray: none; stroke-linecap: butt; stroke-linejoin: miter; stroke-miterlimit: 10; fill: rgb(255,255,255); fill-rule: nonzero; opacity: 1;" transform=" matrix(1 0 0 1 0 0) " stroke-linecap="round" />
	<path d="M 79.133 43.753 H 71.7 c -0.553 0 -1 -0.448 -1 -1 V 31.26 c 0 -0.552 0.447 -1 1 -1 h 7.433 c 0.553 0 1 0.448 1 1 v 11.494 C 80.133 43.306 79.686 43.753 79.133 43.753 z M 72.7 41.753 h 5.433 V 32.26 H 72.7 V 41.753 z" style="stroke: none; stroke-width: 1; stroke-dasharray: none; stroke-linecap: butt; stroke-linejoin: miter; stroke-miterlimit: 10; fill: rgb(255,255,255); fill-rule: nonzero; opacity: 1;" transform=" matrix(1 0 0 1 0 0) " stroke-linecap="round" />
	<path d="M 85.84 32.26 H 54.892 c -0.412 0 -0.782 -0.252 -0.932 -0.636 s -0.049 -0.82 0.254 -1.099 l 5.899 -5.433 c 0.185 -0.17 0.427 -0.265 0.678 -0.265 H 85.84 c 0.553 0 1 0.448 1 1 v 5.433 C 86.84 31.812 86.393 32.26 85.84 32.26 z M 57.453 30.26 H 84.84 v -3.433 H 61.182 L 57.453 30.26 z" style="stroke: none; stroke-width: 1; stroke-dasharray: none; stroke-linecap: butt; stroke-linejoin: miter; stroke-miterlimit: 10; fill: rgb(255,255,255); fill-rule: nonzero; opacity: 1;" transform=" matrix(1 0 0 1 0 0) " stroke-linecap="round" />
	<path d="M 55.595 65.48 c -0.553 0 -1 -0.447 -1 -1 v -6.151 c 0 -0.553 0.447 -1 1 -1 s 1 0.447 1 1 v 6.151 C 56.595 65.033 56.147 65.48 55.595 65.48 z" style="stroke: none; stroke-width: 1; stroke-dasharray: none; stroke-linecap: butt; stroke-linejoin: miter; stroke-miterlimit: 10; fill: rgb(255,255,255); fill-rule: nonzero; opacity: 1;" transform=" matrix(1 0 0 1 0 0) " stroke-linecap="round" />
	<path d="M 43.983 37.556 c -0.895 0 -1.79 -0.305 -2.516 -0.913 c -4.826 -4.044 -9.263 -6.479 -13.564 -7.441 c -6.334 -1.494 -10.181 -4.045 -14.339 -7.679 c -0.334 -0.292 -0.754 -0.452 -1.183 -0.452 c -0.004 0 -0.008 0 -0.012 0 L 1.007 21.15 c -0.002 0 -0.004 0 -0.007 0 c -0.264 0 -0.517 -0.104 -0.705 -0.291 C 0.106 20.672 0 20.417 0 20.15 V 6.642 c 0 -0.552 0.448 -1 1 -1 h 14.068 c 1.217 0 2.438 -0.134 3.628 -0.399 L 29.737 2.78 c 1.07 -0.239 2.178 -0.347 3.27 -0.336 l 6.111 0.089 c 1.853 0.027 3.655 0.412 5.357 1.144 l 21.646 9.142 c 2.009 0.864 3.037 3.084 2.399 5.168 c -0.63 2.058 -2.688 3.326 -4.817 2.948 c -9.378 -1.67 -22.002 -3.917 -28.062 -0.101 c 3.606 2.117 7.333 5.505 11.345 10.308 c 0.674 0.807 0.989 1.83 0.888 2.88 c -0.103 1.053 -0.61 1.999 -1.431 2.664 C 45.728 37.266 44.856 37.556 43.983 37.556 z M 12.381 19.07 c 0.913 0 1.799 0.335 2.499 0.946 c 4.029 3.521 7.524 5.833 13.471 7.236 c 4.609 1.032 9.324 3.603 14.401 7.857 c 0.702 0.588 1.725 0.597 2.433 0.023 c 0.4 -0.325 0.649 -0.788 0.699 -1.304 c 0.05 -0.513 -0.104 -1.012 -0.432 -1.404 c -4.348 -5.206 -8.303 -8.658 -12.09 -10.555 c -0.294 -0.147 -0.497 -0.43 -0.542 -0.755 c -0.046 -0.326 0.072 -0.653 0.314 -0.875 c 6.188 -5.676 20.483 -3.131 30.92 -1.272 c 1.124 0.2 2.221 -0.473 2.555 -1.565 c 0.339 -1.106 -0.208 -2.285 -1.271 -2.742 L 43.691 5.517 c -1.466 -0.631 -3.013 -0.961 -4.603 -0.984 l -6.111 -0.089 c -0.94 -0.017 -1.887 0.083 -2.805 0.289 L 19.131 7.194 c -1.333 0.297 -2.7 0.447 -4.063 0.447 H 2 v 11.501 l 10.355 -0.073 C 12.364 19.07 12.373 19.07 12.381 19.07 z" style="stroke: none; stroke-width: 1; stroke-dasharray: none; stroke-linecap: butt; stroke-linejoin: miter; stroke-miterlimit: 10; fill: rgb(255,255,255); fill-rule: nonzero; opacity: 1;" transform=" matrix(1 0 0 1 0 0) " stroke-linecap="round" />
</g>
</svg>