<?xml version="1.0" encoding="UTF-8" standalone="no" ?>
<!DOCTYPE svg PUBLIC "-//W3C//DTD SVG 1.1//EN" "http://www.w3.org/Graphics/SVG/1.1/DTD/svg11.dtd">
<svg xmlns="http://www.w3.org/2000/svg" xmlns:xlink="http://www.w3.org/1999/xlink" version="1.1" width="445" height="445" viewBox="0 0 445 445" xml:space="preserve">
<desc>Created with Fabric.js 1.7.22</desc>
<defs>
</defs>
<g id="icon" style="stroke: none; stroke-width: 1; stroke-dasharray: none; stroke-linecap: butt; stroke-linejoin: miter; stroke-miterlimit: 10; fill: none; fill-rule: nonzero; opacity: 1;" transform="translate(-2.4722222222222285 -2.4722222222222285) scale(4.94 4.94)" >
	<path d="M 53.323 45.97 c -0.867 0 -1.693 -0.132 -2.461 -0.254 c -1.141 -0.182 -2.126 -0.34 -2.92 -0.038 l -0.189 0.058 c -1.646 0.386 -3.143 -0.083 -4.109 -1.285 c -1.209 -1.507 -1.393 -4.045 -0.437 -6.036 l 0.065 -0.12 c 1.434 -2.397 4.043 -1.502 5.604 -0.967 c 0.882 0.303 1.978 0.679 2.431 0.427 c 2.408 -1.552 5.864 -3.285 8.194 -2.448 c 0.928 0.333 1.61 1.051 1.922 2.022 l 0.066 0.341 c 0.315 4.041 -1.786 6.748 -6.246 8.046 C 54.587 45.903 53.944 45.97 53.323 45.97 z M 49 42.511 c 0.812 0 1.6 0.125 2.335 0.243 c 1.107 0.177 2.155 0.343 3.079 0.08 c 3.006 -0.875 4.213 -2.244 4.1 -4.693 c -0.378 -0.251 -2.472 0.134 -5.666 2.188 c -1.704 0.951 -3.5 0.333 -4.945 -0.161 c -1.373 -0.471 -1.859 -0.561 -2.03 -0.366 c -0.452 1.02 -0.314 2.244 0.111 2.773 c 0.104 0.13 0.316 0.398 1.006 0.259 C 47.664 42.594 48.34 42.511 49 42.511 z" style="stroke: none; stroke-width: 1; stroke-dasharray: none; stroke-linecap: butt; stroke-linejoin: miter; stroke-miterlimit: 10; fill: rgb(255,255,255); fill-rule: nonzero; opacity: 1;" transform=" matrix(1 0 0 1 0 0) " stroke-linecap="round" />
	<path d="M 38.739 43.398 H 9.277 c -0.829 0 -1.5 -0.671 -1.5 -1.5 s 0.671 -1.5 1.5 -1.5 h 29.462 c 0.829 0 1.5 0.671 1.5 1.5 S 39.568 43.398 38.739 43.398 z" style="stroke: none; stroke-width: 1; stroke-dasharray: none; stroke-linecap: butt; stroke-linejoin: miter; stroke-miterlimit: 10; fill: rgb(255,255,255); fill-rule: nonzero; opacity: 1;" transform=" matrix(1 0 0 1 0 0) " stroke-linecap="round" />
	<path d="M 13.983 57.933 c -0.598 0 -1.162 -0.359 -1.396 -0.948 c -0.305 -0.771 0.073 -1.642 0.843 -1.946 l 24.756 -9.793 c 0.771 -0.304 1.642 0.073 1.947 0.843 c 0.305 0.771 -0.073 1.642 -0.843 1.946 l -24.756 9.793 C 14.353 57.899 14.167 57.933 13.983 57.933 z" style="stroke: none; stroke-width: 1; stroke-dasharray: none; stroke-linecap: butt; stroke-linejoin: miter; stroke-miterlimit: 10; fill: rgb(255,255,255); fill-rule: nonzero; opacity: 1;" transform=" matrix(1 0 0 1 0 0) " stroke-linecap="round" />
	<path d="M 38.739 38.645 c -0.183 0 -0.37 -0.034 -0.551 -0.105 l -24.756 -9.78 c -0.771 -0.304 -1.148 -1.176 -0.844 -1.946 c 0.304 -0.77 1.174 -1.147 1.946 -0.844 l 24.756 9.78 c 0.771 0.304 1.148 1.176 0.844 1.946 C 39.901 38.285 39.336 38.645 38.739 38.645 z" style="stroke: none; stroke-width: 1; stroke-dasharray: none; stroke-linecap: butt; stroke-linejoin: miter; stroke-miterlimit: 10; fill: rgb(255,255,255); fill-rule: nonzero; opacity: 1;" transform=" matrix(1 0 0 1 0 0) " stroke-linecap="round" />
	<circle cx="14.777999999999999" cy="48.648" r="2.008" style="stroke: none; stroke-width: 1; stroke-dasharray: none; stroke-linecap: butt; stroke-linejoin: miter; stroke-miterlimit: 10; fill: rgb(255,255,255); fill-rule: nonzero; opacity: 1;" transform="  matrix(1 0 0 1 0 0) "/>
	<circle cx="18.738" cy="35.798" r="2.008" style="stroke: none; stroke-width: 1; stroke-dasharray: none; stroke-linecap: butt; stroke-linejoin: miter; stroke-miterlimit: 10; fill: rgb(255,255,255); fill-rule: nonzero; opacity: 1;" transform="  matrix(1 0 0 1 0 0) "/>
	<path d="M 34.326 90 c -0.829 0 -1.5 -0.672 -1.5 -1.5 v -5.91 c 0 -1.779 -0.758 -3.483 -2.081 -4.676 l -8.991 -8.102 c -0.616 -0.555 -0.665 -1.503 -0.11 -2.118 s 1.503 -0.665 2.118 -0.11 l 8.991 8.102 c 1.953 1.761 3.072 4.277 3.072 6.904 v 5.91 C 35.826 89.328 35.155 90 34.326 90 z" style="stroke: none; stroke-width: 1; stroke-dasharray: none; stroke-linecap: butt; stroke-linejoin: miter; stroke-miterlimit: 10; fill: rgb(255,255,255); fill-rule: nonzero; opacity: 1;" transform=" matrix(1 0 0 1 0 0) " stroke-linecap="round" />
	<path d="M 73.877 57.631 l -0.698 -0.128 V 27.02 v -5.582 C 73.178 9.617 63.561 0 51.741 0 C 39.92 0 30.303 9.617 30.303 21.438 v 3.895 c 0 0.424 0.18 0.829 0.495 1.113 c 0.314 0.284 0.737 0.42 1.158 0.379 l 1.332 -0.137 l 0.291 2.935 c 0.082 0.825 0.824 1.43 1.641 1.345 c 0.824 -0.082 1.426 -0.816 1.345 -1.641 l -0.297 -2.999 c 10.247 -1.497 16.894 -3.813 21.124 -7.381 c 2.869 3.193 5.641 5.349 9.822 7.668 l -0.755 9.029 c -0.181 2.158 -0.726 4.248 -1.618 6.211 c -0.473 1.039 -1.043 2.04 -1.694 2.973 c -0.65 0.933 -1.391 1.812 -2.199 2.613 c -0.362 0.358 -0.747 0.682 -1.133 1.007 c -0.171 0.098 -0.32 0.227 -0.44 0.383 c -1.578 1.249 -3.338 2.231 -5.258 2.924 c -1.531 0.555 -3.219 0.555 -4.75 0 c -1.916 -0.692 -3.688 -1.691 -5.282 -2.955 c -0.275 -0.337 -0.688 -0.556 -1.157 -0.556 c -0.462 0 -0.87 0.213 -1.145 0.542 c -0.015 0.016 -0.032 0.029 -0.046 0.046 c -0.013 0.016 -0.021 0.034 -0.034 0.051 c -0.012 0.017 -0.024 0.035 -0.035 0.053 c -0.231 0.336 -0.308 0.735 -0.24 1.114 v 1.358 c 0 2.354 -1.682 4.371 -3.998 4.795 l -7.824 1.43 c -4.836 0.885 -8.346 5.095 -8.346 10.01 v 18.254 c 0 2.264 1.842 4.105 4.105 4.105 h 52.753 c 2.265 0 4.106 -1.842 4.106 -4.105 V 67.641 C 82.223 62.726 78.714 58.516 73.877 57.631 z M 58.655 15.831 c -0.271 -0.323 -0.667 -0.516 -1.089 -0.532 c -0.404 -0.016 -0.83 0.146 -1.126 0.446 c -3.809 3.867 -10.593 6.276 -21.994 7.809 l -1.143 0.117 v -2.233 C 33.303 11.271 41.574 3 51.741 3 c 10.166 0 18.438 8.271 18.438 18.438 v 3.805 c -0.126 -0.333 -0.355 -0.624 -0.682 -0.8 C 64.676 21.86 61.839 19.606 58.655 15.831 z M 65.606 46.544 c 0.755 -1.082 1.416 -2.242 1.964 -3.447 c 1.036 -2.278 1.668 -4.701 1.878 -7.203 l 0.73 -8.741 v 29.802 l -4.126 -0.754 c -2.316 -0.424 -3.997 -2.44 -3.997 -4.795 v -0.944 c 0.336 -0.294 0.681 -0.573 1.001 -0.889 C 63.994 48.645 64.851 47.626 65.606 46.544 z M 44.328 52.616 c 1.269 0.782 2.607 1.449 4.019 1.96 c 1.095 0.396 2.244 0.593 3.395 0.593 s 2.3 -0.197 3.395 -0.594 c 1.419 -0.513 2.757 -1.171 4.02 -1.948 c 0.419 2.681 2.194 4.945 4.664 6.007 c -2.614 6.911 -6.658 12.61 -12.079 16.94 c -5.422 -4.329 -9.465 -10.028 -12.08 -16.94 C 42.135 57.57 43.911 55.301 44.328 52.616 z M 24.259 85.895 V 67.641 c 0 -3.466 2.475 -6.435 5.885 -7.059 l 6.595 -1.205 c 2.953 7.973 7.678 14.471 14.102 19.292 c 0.267 0.2 0.584 0.301 0.9 0.301 s 0.634 -0.101 0.9 -0.301 c 6.423 -4.821 11.148 -11.319 14.101 -19.292 l 6.596 1.205 c 3.41 0.624 5.886 3.593 5.886 7.059 v 0.39 l -8.495 7.655 c -1.953 1.76 -3.073 4.276 -3.073 6.904 V 87 H 25.364 C 24.755 87 24.259 86.504 24.259 85.895 z M 78.117 87 h -7.462 v -4.41 c 0 -1.779 0.759 -3.483 2.081 -4.676 l 6.487 -5.845 v 13.826 C 79.223 86.504 78.727 87 78.117 87 z" style="stroke: none; stroke-width: 1; stroke-dasharray: none; stroke-linecap: butt; stroke-linejoin: miter; stroke-miterlimit: 10; fill: rgb(255,255,255); fill-rule: nonzero; opacity: 1;" transform=" matrix(1 0 0 1 0 0) " stroke-linecap="round" />
	<path d="M 48.404 31.381 c -0.218 0 -0.438 -0.048 -0.648 -0.148 c -1.838 -0.883 -3.625 -0.882 -5.462 0 c -0.746 0.359 -1.643 0.044 -2.001 -0.703 c -0.359 -0.747 -0.044 -1.643 0.703 -2.001 c 2.674 -1.283 5.386 -1.284 8.06 0 c 0.747 0.358 1.062 1.254 0.703 2.001 C 49.499 31.067 48.963 31.381 48.404 31.381 z" style="stroke: none; stroke-width: 1; stroke-dasharray: none; stroke-linecap: butt; stroke-linejoin: miter; stroke-miterlimit: 10; fill: rgb(255,255,255); fill-rule: nonzero; opacity: 1;" transform=" matrix(1 0 0 1 0 0) " stroke-linecap="round" />
	<path d="M 61.257 31.381 c -0.218 0 -0.438 -0.048 -0.648 -0.148 c -1.838 -0.882 -3.625 -0.882 -5.463 0 c -0.748 0.359 -1.643 0.044 -2.002 -0.703 c -0.358 -0.747 -0.044 -1.643 0.703 -2.001 c 2.674 -1.284 5.387 -1.284 8.061 0 c 0.747 0.358 1.062 1.254 0.703 2.001 C 62.351 31.067 61.815 31.381 61.257 31.381 z" style="stroke: none; stroke-width: 1; stroke-dasharray: none; stroke-linecap: butt; stroke-linejoin: miter; stroke-miterlimit: 10; fill: rgb(255,255,255); fill-rule: nonzero; opacity: 1;" transform=" matrix(1 0 0 1 0 0) " stroke-linecap="round" />
</g>
</svg>