<?xml version="1.0" encoding="UTF-8" standalone="no" ?>
<!DOCTYPE svg PUBLIC "-//W3C//DTD SVG 1.1//EN" "http://www.w3.org/Graphics/SVG/1.1/DTD/svg11.dtd">
<svg xmlns="http://www.w3.org/2000/svg" xmlns:xlink="http://www.w3.org/1999/xlink" version="1.1" width="445" height="445" viewBox="0 0 445 445" xml:space="preserve">
<desc>Created with Fabric.js 1.7.22</desc>
<defs>
</defs>
<g id="icon" style="stroke: none; stroke-width: 1; stroke-dasharray: none; stroke-linecap: butt; stroke-linejoin: miter; stroke-miterlimit: 10; fill: none; fill-rule: nonzero; opacity: 1;" transform="translate(-2.4722222222222285 -2.4722222222222285) scale(4.94 4.94)" >
	<path d="M 87.601 30.461 c -3.215 -2.724 -8.842 -2.912 -15.493 -0.548 l -22.859 -3.858 c -2.824 -0.477 -5.688 -0.477 -8.512 0 l -22.849 3.856 c -6.651 -2.362 -12.278 -2.173 -15.489 0.55 C 0.466 32.1 -0.357 34.51 0.143 37.073 c 0.882 4.523 5.522 8.62 12.452 11.045 c 8.709 10.253 16.891 16.184 32.398 16.184 c 15.504 0 23.685 -5.929 32.391 -16.177 c 6.941 -2.424 11.591 -6.525 12.473 -11.052 C 90.356 34.51 89.534 32.1 87.601 30.461 z M 4.069 36.307 c -0.224 -1.149 0.084 -2.089 0.917 -2.795 c 1.402 -1.19 4.544 -1.826 9.389 -0.516 l -2.751 10.435 C 6.701 41.209 4.462 38.323 4.069 36.307 z M 44.993 60.302 c -14.12 0 -21.3 -5.253 -29.496 -14.952 c -0.054 -0.084 -0.113 -0.163 -0.179 -0.238 l 2.955 -11.209 l 23.13 -3.904 c 2.381 -0.402 4.796 -0.402 7.18 0 l 23.129 3.904 l 2.957 11.222 c -0.054 0.062 -0.102 0.127 -0.148 0.195 C 66.312 55.036 59.132 60.302 44.993 60.302 z M 85.931 36.307 c -0.394 2.017 -2.636 4.907 -7.568 7.13 L 75.612 33 c 4.853 -1.315 8 -0.677 9.403 0.512 C 85.846 34.218 86.155 35.158 85.931 36.307 z" style="stroke: none; stroke-width: 1; stroke-dasharray: none; stroke-linecap: butt; stroke-linejoin: miter; stroke-miterlimit: 10; fill: rgb(255,255,255); fill-rule: nonzero; opacity: 1;" transform=" matrix(1 0 0 1 0 0) " stroke-linecap="round" />
	<path d="M 44.993 55.709 c -9.471 0 -14.452 -1.852 -19.856 -5.051 c -0.95 -0.563 -1.265 -1.789 -0.702 -2.739 c 0.563 -0.949 1.79 -1.265 2.74 -0.702 c 4.922 2.913 9.219 4.492 17.818 4.492 s 12.896 -1.579 17.819 -4.492 c 0.948 -0.563 2.177 -0.248 2.739 0.702 c 0.563 0.95 0.249 2.177 -0.702 2.739 C 59.446 53.858 54.464 55.709 44.993 55.709 z" style="stroke: none; stroke-width: 1; stroke-dasharray: none; stroke-linecap: butt; stroke-linejoin: miter; stroke-miterlimit: 10; fill: rgb(255,255,255); fill-rule: nonzero; opacity: 1;" transform=" matrix(1 0 0 1 0 0) " stroke-linecap="round" />
	<path d="M 44.993 47.838 c -7.324 0 -11.186 -0.951 -15.38 -2.594 c -1.029 -0.403 -1.536 -1.563 -1.133 -2.591 c 0.403 -1.029 1.565 -1.535 2.591 -1.133 c 3.839 1.503 7.195 2.318 13.922 2.318 s 10.082 -0.814 13.921 -2.318 c 1.029 -0.404 2.189 0.105 2.592 1.133 c 0.402 1.029 -0.104 2.189 -1.133 2.592 C 56.179 46.887 52.317 47.838 44.993 47.838 z" style="stroke: none; stroke-width: 1; stroke-dasharray: none; stroke-linecap: butt; stroke-linejoin: miter; stroke-miterlimit: 10; fill: rgb(255,255,255); fill-rule: nonzero; opacity: 1;" transform=" matrix(1 0 0 1 0 0) " stroke-linecap="round" />
	<path d="M 55.459 38.391 c -0.168 0 -0.338 -0.021 -0.509 -0.066 c -2.743 -0.72 -5.143 -1.109 -9.957 -1.109 c -4.814 0 -7.213 0.39 -9.958 1.109 c -1.067 0.281 -2.162 -0.358 -2.442 -1.427 c -0.28 -1.068 0.359 -2.162 1.427 -2.442 c 2.996 -0.786 5.752 -1.24 10.972 -1.24 c 5.222 0 7.978 0.455 10.973 1.24 c 1.068 0.28 1.707 1.374 1.427 2.442 C 57.157 37.796 56.347 38.391 55.459 38.391 z" style="stroke: none; stroke-width: 1; stroke-dasharray: none; stroke-linecap: butt; stroke-linejoin: miter; stroke-miterlimit: 10; fill: rgb(255,255,255); fill-rule: nonzero; opacity: 1;" transform=" matrix(1 0 0 1 0 0) " stroke-linecap="round" />
</g>
</svg>