<?xml version="1.0" encoding="UTF-8" standalone="no" ?>
<!DOCTYPE svg PUBLIC "-//W3C//DTD SVG 1.1//EN" "http://www.w3.org/Graphics/SVG/1.1/DTD/svg11.dtd">
<svg xmlns="http://www.w3.org/2000/svg" xmlns:xlink="http://www.w3.org/1999/xlink" version="1.1" width="445" height="445" viewBox="0 0 445 445" xml:space="preserve">
<desc>Created with Fabric.js 1.7.22</desc>
<defs>
</defs>
<g id="icon" style="stroke: none; stroke-width: 1; stroke-dasharray: none; stroke-linecap: butt; stroke-linejoin: miter; stroke-miterlimit: 10; fill: none; fill-rule: nonzero; opacity: 1;" transform="translate(-2.4722222222222285 -2.4722222222222285) scale(4.94 4.94)" >
	<path d="M 10.5 46.585 c -3.644 0 -6.608 -2.964 -6.608 -6.608 s 2.964 -6.608 6.608 -6.608 s 6.608 2.964 6.608 6.608 S 14.144 46.585 10.5 46.585 z M 10.5 36.368 c -1.99 0 -3.608 1.619 -3.608 3.608 s 1.619 3.608 3.608 3.608 s 3.608 -1.619 3.608 -3.608 S 12.49 36.368 10.5 36.368 z" style="stroke: none; stroke-width: 1; stroke-dasharray: none; stroke-linecap: butt; stroke-linejoin: miter; stroke-miterlimit: 10; fill: rgb(255,255,255); fill-rule: nonzero; opacity: 1;" transform=" matrix(1 0 0 1 0 0) " stroke-linecap="round" />
	<path d="M 19.771 62.009 c -0.829 0 -1.5 -0.672 -1.5 -1.5 c 0 -4.285 -3.486 -7.771 -7.771 -7.771 s -7.771 3.485 -7.771 7.771 c 0 0.828 -0.671 1.5 -1.5 1.5 s -1.5 -0.672 -1.5 -1.5 c 0 -5.938 4.832 -10.771 10.771 -10.771 s 10.771 4.832 10.771 10.771 C 21.271 61.337 20.599 62.009 19.771 62.009 z" style="stroke: none; stroke-width: 1; stroke-dasharray: none; stroke-linecap: butt; stroke-linejoin: miter; stroke-miterlimit: 10; fill: rgb(255,255,255); fill-rule: nonzero; opacity: 1;" transform=" matrix(1 0 0 1 0 0) " stroke-linecap="round" />
	<path d="M 79.5 46.585 c -3.644 0 -6.608 -2.964 -6.608 -6.608 s 2.965 -6.608 6.608 -6.608 s 6.608 2.964 6.608 6.608 S 83.144 46.585 79.5 46.585 z M 79.5 36.368 c -1.989 0 -3.608 1.619 -3.608 3.608 s 1.619 3.608 3.608 3.608 s 3.608 -1.619 3.608 -3.608 S 81.489 36.368 79.5 36.368 z" style="stroke: none; stroke-width: 1; stroke-dasharray: none; stroke-linecap: butt; stroke-linejoin: miter; stroke-miterlimit: 10; fill: rgb(255,255,255); fill-rule: nonzero; opacity: 1;" transform=" matrix(1 0 0 1 0 0) " stroke-linecap="round" />
	<path d="M 88.771 62.009 c -0.828 0 -1.5 -0.672 -1.5 -1.5 c 0 -4.285 -3.485 -7.771 -7.771 -7.771 s -7.771 3.485 -7.771 7.771 c 0 0.828 -0.672 1.5 -1.5 1.5 s -1.5 -0.672 -1.5 -1.5 c 0 -5.938 4.832 -10.771 10.771 -10.771 s 10.771 4.832 10.771 10.771 C 90.271 61.337 89.599 62.009 88.771 62.009 z" style="stroke: none; stroke-width: 1; stroke-dasharray: none; stroke-linecap: butt; stroke-linejoin: miter; stroke-miterlimit: 10; fill: rgb(255,255,255); fill-rule: nonzero; opacity: 1;" transform=" matrix(1 0 0 1 0 0) " stroke-linecap="round" />
	<path d="M 38.953 41.385 c -0.829 0 -1.5 -0.671 -1.5 -1.5 V 32.33 l -1.787 1.219 c -0.685 0.468 -1.618 0.291 -2.084 -0.394 c -0.467 -0.685 -0.291 -1.618 0.394 -2.084 l 4.132 -2.818 c 0.461 -0.313 1.056 -0.345 1.546 -0.087 c 0.492 0.26 0.799 0.77 0.799 1.326 v 10.394 C 40.453 40.714 39.781 41.385 38.953 41.385 z" style="stroke: none; stroke-width: 1; stroke-dasharray: none; stroke-linecap: butt; stroke-linejoin: miter; stroke-miterlimit: 10; fill: rgb(255,255,255); fill-rule: nonzero; opacity: 1;" transform=" matrix(1 0 0 1 0 0) " stroke-linecap="round" />
	<path d="M 55.18 41.385 c -0.828 0 -1.5 -0.671 -1.5 -1.5 v -6.772 l -1.971 1.97 c -0.586 0.586 -1.535 0.586 -2.121 0 l -1.971 -1.97 v 6.772 c 0 0.829 -0.672 1.5 -1.5 1.5 c -0.829 0 -1.5 -0.671 -1.5 -1.5 V 29.492 c 0 -0.606 0.365 -1.154 0.926 -1.386 c 0.561 -0.231 1.206 -0.104 1.635 0.325 l 3.471 3.47 l 3.471 -3.47 c 0.43 -0.429 1.075 -0.558 1.635 -0.325 c 0.561 0.232 0.926 0.779 0.926 1.386 v 10.394 C 56.68 40.714 56.008 41.385 55.18 41.385 z" style="stroke: none; stroke-width: 1; stroke-dasharray: none; stroke-linecap: butt; stroke-linejoin: miter; stroke-miterlimit: 10; fill: rgb(255,255,255); fill-rule: nonzero; opacity: 1;" transform=" matrix(1 0 0 1 0 0) " stroke-linecap="round" />
	<path d="M 64.858 51.886 c -0.384 0 -0.768 -0.146 -1.061 -0.439 c -0.586 -0.586 -0.586 -1.535 0 -2.121 l 2.007 -2.007 l -2.007 -2.007 c -0.586 -0.586 -0.586 -1.536 0 -2.121 c 0.586 -0.586 1.535 -0.586 2.121 0 l 3.067 3.068 c 0.586 0.586 0.586 1.535 0 2.121 l -3.067 3.067 C 65.626 51.739 65.242 51.886 64.858 51.886 z" style="stroke: none; stroke-width: 1; stroke-dasharray: none; stroke-linecap: butt; stroke-linejoin: miter; stroke-miterlimit: 10; fill: rgb(255,255,255); fill-rule: nonzero; opacity: 1;" transform=" matrix(1 0 0 1 0 0) " stroke-linecap="round" />
	<path d="M 67.926 48.818 h -9.263 c -0.828 0 -1.5 -0.672 -1.5 -1.5 s 0.672 -1.5 1.5 -1.5 h 9.263 c 0.828 0 1.5 0.672 1.5 1.5 S 68.754 48.818 67.926 48.818 z" style="stroke: none; stroke-width: 1; stroke-dasharray: none; stroke-linecap: butt; stroke-linejoin: miter; stroke-miterlimit: 10; fill: rgb(255,255,255); fill-rule: nonzero; opacity: 1;" transform=" matrix(1 0 0 1 0 0) " stroke-linecap="round" />
	<path d="M 25.142 51.886 c -0.384 0 -0.768 -0.146 -1.061 -0.439 l -3.068 -3.067 c -0.281 -0.281 -0.439 -0.663 -0.439 -1.061 s 0.158 -0.779 0.439 -1.061 l 3.068 -3.068 c 0.586 -0.586 1.535 -0.586 2.121 0 c 0.586 0.585 0.586 1.536 0 2.121 l -2.007 2.007 l 2.007 2.007 c 0.586 0.586 0.586 1.535 0 2.121 C 25.91 51.739 25.526 51.886 25.142 51.886 z" style="stroke: none; stroke-width: 1; stroke-dasharray: none; stroke-linecap: butt; stroke-linejoin: miter; stroke-miterlimit: 10; fill: rgb(255,255,255); fill-rule: nonzero; opacity: 1;" transform=" matrix(1 0 0 1 0 0) " stroke-linecap="round" />
	<path d="M 58.663 48.818 H 22.074 c -0.829 0 -1.5 -0.672 -1.5 -1.5 s 0.671 -1.5 1.5 -1.5 h 36.589 c 0.828 0 1.5 0.672 1.5 1.5 S 59.491 48.818 58.663 48.818 z" style="stroke: none; stroke-width: 1; stroke-dasharray: none; stroke-linecap: butt; stroke-linejoin: miter; stroke-miterlimit: 10; fill: rgb(255,255,255); fill-rule: nonzero; opacity: 1;" transform=" matrix(1 0 0 1 0 0) " stroke-linecap="round" />
</g>
</svg>