<?xml version="1.0" encoding="UTF-8" standalone="no" ?>
<!DOCTYPE svg PUBLIC "-//W3C//DTD SVG 1.1//EN" "http://www.w3.org/Graphics/SVG/1.1/DTD/svg11.dtd">
<svg xmlns="http://www.w3.org/2000/svg" xmlns:xlink="http://www.w3.org/1999/xlink" version="1.1" width="350" height="350" viewBox="0 0 350 350" xml:space="preserve">
<desc>Created with Fabric.js 1.7.22</desc>
<defs>
</defs>
<g id="icon" style="stroke: none; stroke-width: 1; stroke-dasharray: none; stroke-linecap: butt; stroke-linejoin: miter; stroke-miterlimit: 10; fill: none; fill-rule: nonzero; opacity: 1;" transform="translate(-1.9444444444444287 -1.9444444444444287) scale(3.89 3.89)" >
	<path d="M 63.725 62.218 l -0.397 -0.073 V 36.613 v -4.711 c 0 -10.105 -8.222 -18.327 -18.327 -18.327 s -18.327 8.221 -18.327 18.327 v 4.711 v 25.532 l -0.397 0.073 c -4.193 0.767 -7.236 4.416 -7.236 8.678 v 15.405 c 0 2.04 1.66 3.699 3.699 3.699 h 44.521 c 2.04 0 3.699 -1.659 3.699 -3.699 V 70.896 C 70.96 66.634 67.917 62.984 63.725 62.218 z M 57.121 61.011 c -1.844 -0.337 -3.182 -1.941 -3.182 -3.816 v -0.692 c 0.258 -0.229 0.527 -0.444 0.774 -0.688 c 0.801 -0.792 1.534 -1.663 2.179 -2.589 c 0.646 -0.923 1.21 -1.914 1.68 -2.945 c 0.886 -1.948 1.426 -4.02 1.605 -6.157 l 0.149 -1.787 v 19.261 L 57.121 61.011 z M 52.604 53.681 c -1.619 1.604 -3.53 2.811 -5.679 3.587 c -1.242 0.449 -2.608 0.449 -3.85 0 c -5.727 -2.069 -9.755 -7.327 -10.263 -13.395 l -0.639 -7.641 c 5.153 -0.759 9.059 -1.727 12.213 -3.019 c 2.132 -0.873 3.9 -1.891 5.36 -3.089 c 2.355 2.59 4.658 4.375 8.066 6.278 l -0.625 7.469 c -0.15 1.793 -0.603 3.531 -1.346 5.165 c -0.394 0.864 -0.868 1.696 -1.409 2.471 C 53.891 52.286 53.275 53.017 52.604 53.681 z M 38.905 58.589 c 0.993 0.589 2.041 1.1 3.15 1.501 c 0.949 0.343 1.947 0.514 2.944 0.514 s 1.995 -0.171 2.944 -0.515 c 1.108 -0.401 2.152 -0.916 3.149 -1.505 c 0.438 2.125 1.861 3.899 3.812 4.815 c -2.17 5.646 -5.486 10.318 -9.906 13.89 c -4.42 -3.572 -7.735 -8.244 -9.906 -13.89 C 37.044 62.484 38.466 60.712 38.905 58.589 z M 45 16.575 c 8.451 0 15.327 6.875 15.327 15.327 v 2.502 c -0.074 -0.06 -0.144 -0.124 -0.229 -0.171 c -4.041 -2.165 -6.418 -4.053 -9.083 -7.214 c -0.271 -0.323 -0.667 -0.516 -1.088 -0.532 c -0.419 -0.012 -0.831 0.146 -1.127 0.446 c -1.368 1.389 -3.184 2.535 -5.551 3.504 c -3.149 1.29 -7.365 2.278 -12.888 3.021 c -0.259 0.035 -0.49 0.139 -0.688 0.285 v -1.84 C 29.673 23.451 36.549 16.575 45 16.575 z M 29.673 42.331 l 0.15 1.792 c 0.406 4.854 2.708 9.266 6.238 12.394 v 0.678 c 0 1.875 -1.338 3.479 -3.182 3.816 l -3.206 0.586 V 42.331 z M 26.815 65.169 l 5.375 -0.982 c 2.513 6.687 6.502 12.145 11.91 16.203 l 0.9 0.677 l 0.9 -0.677 c 5.408 -4.058 9.397 -9.516 11.91 -16.203 l 5.375 0.982 c 2.767 0.506 4.774 2.914 4.774 5.727 v 0.225 l -7.092 6.391 c -1.697 1.528 -2.671 3.716 -2.671 6 V 87 H 31.803 v -3.488 c 0 -2.284 -0.974 -4.471 -2.67 -6 L 22.04 71.12 v -0.225 C 22.04 68.083 24.048 65.675 26.815 65.169 z M 22.04 86.301 V 75.159 l 5.084 4.581 c 1.067 0.961 1.679 2.336 1.679 3.771 V 87 h -6.063 C 22.354 87 22.04 86.687 22.04 86.301 z M 67.261 87 h -6.063 v -3.488 c 0 -1.436 0.612 -2.811 1.679 -3.771 l 5.084 -4.581 v 11.142 C 67.96 86.687 67.646 87 67.261 87 z" style="stroke: none; stroke-width: 1; stroke-dasharray: none; stroke-linecap: butt; stroke-linejoin: miter; stroke-miterlimit: 10; fill: rgb(255,255,255); fill-rule: nonzero; opacity: 1;" transform=" matrix(1 0 0 1 0 0) " stroke-linecap="round" />
	<path d="M 36.479 44.757 c -0.559 0 -1.095 -0.314 -1.353 -0.852 c -0.359 -0.747 -0.044 -1.643 0.703 -2.001 c 2.324 -1.116 4.681 -1.116 7.005 0 c 0.747 0.358 1.062 1.254 0.703 2.001 c -0.358 0.747 -1.255 1.062 -2.001 0.703 c -1.483 -0.712 -2.925 -0.713 -4.408 0 C 36.918 44.709 36.697 44.757 36.479 44.757 z" style="stroke: none; stroke-width: 1; stroke-dasharray: none; stroke-linecap: butt; stroke-linejoin: miter; stroke-miterlimit: 10; fill: rgb(255,255,255); fill-rule: nonzero; opacity: 1;" transform=" matrix(1 0 0 1 0 0) " stroke-linecap="round" />
	<path d="M 53.031 44.757 c -0.218 0 -0.438 -0.048 -0.648 -0.148 c -1.482 -0.713 -2.926 -0.713 -4.408 0 c -0.749 0.356 -1.644 0.043 -2.001 -0.704 c -0.359 -0.747 -0.044 -1.643 0.703 -2.001 c 2.324 -1.116 4.682 -1.116 7.006 0 c 0.746 0.358 1.062 1.254 0.703 2.001 C 54.127 44.443 53.59 44.757 53.031 44.757 z" style="stroke: none; stroke-width: 1; stroke-dasharray: none; stroke-linecap: butt; stroke-linejoin: miter; stroke-miterlimit: 10; fill: rgb(255,255,255); fill-rule: nonzero; opacity: 1;" transform=" matrix(1 0 0 1 0 0) " stroke-linecap="round" />
	<path d="M 50.023 51.396 H 39.977 c -0.829 0 -1.5 -0.672 -1.5 -1.5 s 0.671 -1.5 1.5 -1.5 h 10.047 c 0.828 0 1.5 0.672 1.5 1.5 S 50.852 51.396 50.023 51.396 z" style="stroke: none; stroke-width: 1; stroke-dasharray: none; stroke-linecap: butt; stroke-linejoin: miter; stroke-miterlimit: 10; fill: rgb(255,255,255); fill-rule: nonzero; opacity: 1;" transform=" matrix(1 0 0 1 0 0) " stroke-linecap="round" />
	<path d="M 67.358 22.206 c -0.732 0 -1.374 -0.537 -1.482 -1.284 c -0.119 -0.82 0.448 -1.581 1.269 -1.701 c 2.654 -0.387 3.509 -1.098 3.59 -1.42 c 0.11 -0.44 -0.777 -2.337 -6.124 -5.181 c -3.126 -1.662 -7.143 -3.305 -11.615 -4.75 c -0.789 -0.255 -1.221 -1.1 -0.967 -1.889 c 0.256 -0.787 1.098 -1.223 1.889 -0.966 c 4.639 1.499 8.823 3.213 12.102 4.957 c 5.721 3.042 8.286 5.922 7.626 8.559 c -0.48 1.912 -2.521 3.143 -6.068 3.659 C 67.503 22.201 67.431 22.206 67.358 22.206 z" style="stroke: none; stroke-width: 1; stroke-dasharray: none; stroke-linecap: butt; stroke-linejoin: miter; stroke-miterlimit: 10; fill: rgb(255,255,255); fill-rule: nonzero; opacity: 1;" transform=" matrix(1 0 0 1 0 0) " stroke-linecap="round" />
	<path d="M 18.825 9.373 c -0.357 0 -0.715 -0.126 -1.002 -0.384 c -1.943 -1.746 -2.726 -3.441 -2.326 -5.038 c 1.007 -4.017 8.781 -4.263 15.122 -3.76 c 0.826 0.065 1.442 0.788 1.377 1.613 c -0.065 0.826 -0.786 1.444 -1.613 1.377 c -8.596 -0.68 -11.779 0.716 -11.976 1.499 c -0.061 0.243 0.17 0.954 1.421 2.077 c 0.616 0.554 0.667 1.502 0.113 2.119 C 19.646 9.205 19.236 9.373 18.825 9.373 z" style="stroke: none; stroke-width: 1; stroke-dasharray: none; stroke-linecap: butt; stroke-linejoin: miter; stroke-miterlimit: 10; fill: rgb(255,255,255); fill-rule: nonzero; opacity: 1;" transform=" matrix(1 0 0 1 0 0) " stroke-linecap="round" />
	<path d="M 21.783 22.206 c -0.072 0 -0.145 -0.005 -0.218 -0.016 c -3.547 -0.517 -5.588 -1.748 -6.068 -3.659 c -0.661 -2.637 1.905 -5.517 7.626 -8.559 c 2.359 -1.255 5.147 -2.479 8.285 -3.638 c 0.776 -0.287 1.64 0.11 1.927 0.887 c 0.287 0.777 -0.11 1.64 -0.887 1.927 c -3.012 1.112 -5.676 2.281 -7.917 3.472 c -5.347 2.843 -6.235 4.741 -6.125 5.181 c 0.081 0.322 0.935 1.033 3.59 1.42 c 0.82 0.12 1.387 0.881 1.268 1.701 C 23.157 21.668 22.516 22.206 21.783 22.206 z" style="stroke: none; stroke-width: 1; stroke-dasharray: none; stroke-linecap: butt; stroke-linejoin: miter; stroke-miterlimit: 10; fill: rgb(255,255,255); fill-rule: nonzero; opacity: 1;" transform=" matrix(1 0 0 1 0 0) " stroke-linecap="round" />
	<path d="M 70.05 9.607 c -0.425 0 -0.847 -0.179 -1.143 -0.527 c -0.537 -0.631 -0.462 -1.578 0.169 -2.115 c 1.454 -1.238 1.721 -2.036 1.658 -2.285 c -0.196 -0.782 -3.382 -2.177 -11.976 -1.498 c -3.586 0.284 -7.683 0.908 -11.848 1.805 c -0.813 0.174 -1.608 -0.341 -1.782 -1.15 c -0.174 -0.81 0.341 -1.608 1.151 -1.782 c 4.292 -0.925 8.525 -1.569 12.242 -1.863 c 6.336 -0.503 14.113 -0.258 15.122 3.759 c 0.419 1.677 -0.463 3.459 -2.623 5.299 C 70.739 9.49 70.394 9.607 70.05 9.607 z" style="stroke: none; stroke-width: 1; stroke-dasharray: none; stroke-linecap: butt; stroke-linejoin: miter; stroke-miterlimit: 10; fill: rgb(255,255,255); fill-rule: nonzero; opacity: 1;" transform=" matrix(1 0 0 1 0 0) " stroke-linecap="round" />
	<polygon points="39.67,1.43 40.73,3.58 43.09,3.92 41.38,5.59 41.78,7.95 39.67,6.83 37.55,7.95 37.96,5.59 36.24,3.92 38.61,3.58 " style="stroke: none; stroke-width: 1; stroke-dasharray: none; stroke-linecap: butt; stroke-linejoin: miter; stroke-miterlimit: 10; fill: rgb(255,255,255); fill-rule: nonzero; opacity: 1;" transform="  matrix(1 0 0 1 0 0) "/>
</g>
</svg>