<?xml version="1.0" standalone="no"?>
<!DOCTYPE svg PUBLIC "-//W3C//DTD SVG 20010904//EN"
 "http://www.w3.org/TR/2001/REC-SVG-20010904/DTD/svg10.dtd">
<svg version="1.0" xmlns="http://www.w3.org/2000/svg"
 width="256.000000pt" height="256.000000pt" viewBox="0 0 256.000000 256.000000"
 preserveAspectRatio="xMidYMid meet">

<g transform="translate(0.000000,256.000000) scale(0.100000,-0.100000)"
fill="#000000" stroke="none">
<path d="M1157 2532 c-15 -15 -27 -36 -27 -46 0 -10 20 -38 45 -62 l46 -44 -3
-132 -3 -133 -62 -8 c-34 -4 -89 -16 -123 -26 l-61 -19 -20 40 c-17 34 -19 45
-9 68 7 16 9 34 5 39 -10 17 -60 13 -78 -7 -24 -26 -21 -47 9 -60 22 -10 54
-64 54 -90 0 -5 -19 -18 -42 -28 -24 -10 -72 -41 -107 -67 l-64 -49 -94 94
-93 93 0 62 c0 56 -3 64 -25 79 -39 25 -89 11 -140 -41 -52 -51 -66 -101 -41
-140 15 -22 23 -25 79 -25 l62 0 93 -93 94 -94 -49 -64 c-26 -35 -57 -83 -67
-106 -10 -24 -23 -43 -28 -43 -26 0 -80 32 -90 54 -6 15 -19 26 -29 26 -35 0
-66 -78 -38 -95 5 -4 23 -2 39 5 23 10 34 8 68 -9 l40 -20 -19 -61 c-10 -34
-22 -89 -26 -123 l-8 -62 -133 -3 -132 -3 -44 46 c-24 25 -53 45 -63 45 -11 0
-31 -13 -46 -28 -25 -26 -27 -35 -27 -109 0 -78 1 -82 31 -107 17 -14 37 -26
46 -26 8 0 35 20 59 45 l44 46 132 -3 133 -3 8 -62 c4 -34 16 -90 26 -123 l19
-62 -44 -19 c-35 -16 -48 -17 -65 -9 -28 15 -49 6 -49 -22 0 -57 63 -93 76
-43 4 17 19 29 50 41 25 9 46 15 47 13 2 -2 18 -31 36 -64 19 -33 49 -80 69
-104 l35 -43 -95 -95 -96 -94 -56 2 c-93 3 -120 -43 -73 -126 39 -69 120 -110
166 -84 23 13 26 22 29 80 l3 65 93 93 94 93 49 -39 c27 -21 75 -52 106 -68
31 -17 57 -34 57 -38 0 -25 -33 -79 -54 -89 -32 -14 -33 -42 -4 -62 48 -34 92
-11 68 34 -15 29 17 113 40 104 42 -16 168 -44 202 -44 l38 0 0 -134 0 -134
-45 -45 c-50 -51 -53 -61 -29 -96 47 -66 191 -66 238 0 24 35 20 47 -29 95
l-45 43 0 134 0 134 63 6 c34 3 91 15 125 26 l64 19 19 -44 c16 -35 17 -48 9
-65 -24 -44 21 -67 68 -33 29 20 28 48 -4 62 -21 10 -54 64 -54 89 0 4 24 20
53 36 28 15 76 46 106 68 l54 41 95 -95 c91 -93 94 -97 92 -139 -4 -68 -2 -76
25 -94 50 -32 142 15 176 90 24 52 24 68 0 97 -16 20 -26 23 -76 21 l-58 -2
-94 93 -95 94 41 54 c22 30 53 78 68 106 16 29 32 53 36 53 25 0 79 -33 89
-54 14 -32 42 -33 62 -4 34 47 11 92 -33 68 -17 -8 -30 -7 -65 9 l-44 19 19
64 c11 34 23 91 26 126 l6 62 134 0 134 0 43 -45 c48 -49 60 -53 95 -29 66 47
66 191 0 238 -35 24 -45 21 -96 -29 l-45 -45 -134 0 -134 0 0 38 c0 34 -28
160 -44 202 -9 23 75 55 104 40 45 -24 68 20 34 68 -20 29 -48 28 -62 -4 -10
-21 -64 -54 -89 -54 -4 0 -21 26 -38 57 -16 31 -47 79 -68 106 l-39 49 93 94
93 93 65 3 c58 3 67 6 80 29 26 46 -15 127 -84 166 -83 47 -129 20 -126 -73
l2 -56 -94 -96 -95 -95 -43 35 c-24 20 -71 50 -104 69 -33 18 -62 34 -64 36
-2 1 4 23 13 48 13 32 25 47 42 51 48 12 12 74 -44 74 -28 0 -37 -21 -22 -49
8 -17 7 -30 -9 -65 l-19 -44 -62 19 c-33 10 -89 22 -123 26 l-62 8 -3 133 -3
132 46 44 c25 24 45 51 45 59 0 9 -12 29 -26 46 -25 30 -28 31 -108 31 -77 0
-84 -2 -109 -28z"/>
</g>
</svg>
